<svg width="123" height="36" viewBox="0 0 123 36" fill="none" xmlns="http://www.w3.org/2000/svg">
<g opacity="0.8">
<path d="M119.223 34.091C119.166 34.091 119.117 34.0736 119.077 34.0389C119.043 33.9984 119.025 33.9492 119.025 33.8914V29.7868C119.025 29.729 119.043 29.6798 119.077 29.6393C119.117 29.5988 119.166 29.5786 119.223 29.5786H119.619C119.677 29.5786 119.726 29.5988 119.766 29.6393C119.806 29.6798 119.826 29.729 119.826 29.7868V30.1686C119.941 29.9719 120.099 29.8244 120.3 29.7261C120.501 29.6277 120.744 29.5786 121.031 29.5786H121.367C121.425 29.5786 121.471 29.5988 121.505 29.6393C121.545 29.674 121.565 29.7203 121.565 29.7781V30.1339C121.565 30.1918 121.545 30.2381 121.505 30.2728C121.471 30.3075 121.425 30.3248 121.367 30.3248H120.851C120.541 30.3248 120.297 30.4174 120.119 30.6025C119.941 30.7819 119.852 31.0277 119.852 31.3401V33.8914C119.852 33.9492 119.832 33.9984 119.792 34.0389C119.751 34.0736 119.703 34.091 119.645 34.091H119.223Z" fill="#222222"/>
<path d="M115.998 34.1777C115.401 34.1777 114.927 33.9955 114.577 33.631C114.227 33.2608 114.035 32.7575 114 32.1211C113.994 32.0459 113.991 31.9504 113.991 31.8347C113.991 31.7132 113.994 31.6149 114 31.5397C114.023 31.129 114.118 30.7703 114.284 30.4637C114.451 30.1513 114.677 29.9112 114.964 29.7434C115.257 29.5756 115.599 29.4918 115.989 29.4918C116.425 29.4918 116.79 29.5843 117.082 29.7694C117.381 29.9546 117.608 30.2178 117.763 30.5591C117.918 30.9004 117.995 31.2996 117.995 31.7566V31.9042C117.995 31.9678 117.975 32.017 117.935 32.0517C117.9 32.0864 117.854 32.1037 117.797 32.1037H114.818C114.818 32.1095 114.818 32.1211 114.818 32.1385C114.818 32.1558 114.818 32.1703 114.818 32.1818C114.829 32.419 114.881 32.6418 114.973 32.85C115.065 33.0525 115.197 33.2174 115.369 33.3447C115.547 33.4719 115.754 33.5356 115.989 33.5356C116.196 33.5356 116.368 33.5037 116.506 33.4401C116.643 33.3765 116.755 33.3071 116.841 33.2318C116.927 33.1509 116.985 33.0872 117.014 33.0409C117.065 32.9715 117.105 32.931 117.134 32.9194C117.163 32.9021 117.209 32.8934 117.272 32.8934H117.694C117.745 32.8934 117.788 32.9108 117.823 32.9455C117.863 32.9744 117.88 33.0178 117.875 33.0756C117.869 33.1624 117.823 33.2694 117.737 33.3967C117.651 33.5182 117.527 33.6397 117.367 33.7612C117.212 33.8827 117.016 33.9839 116.781 34.0649C116.551 34.1401 116.29 34.1777 115.998 34.1777ZM114.818 31.505H117.177V31.479C117.177 31.2186 117.128 30.9872 117.031 30.7847C116.939 30.5823 116.804 30.4232 116.626 30.3075C116.448 30.186 116.236 30.1252 115.989 30.1252C115.742 30.1252 115.53 30.186 115.352 30.3075C115.18 30.4232 115.048 30.5823 114.956 30.7847C114.864 30.9872 114.818 31.2186 114.818 31.479V31.505Z" fill="#222222"/>
<path d="M110.904 36C110.513 36 110.192 35.948 109.939 35.8438C109.692 35.7397 109.497 35.6124 109.354 35.462C109.216 35.3174 109.116 35.1699 109.052 35.0194C108.995 34.8748 108.963 34.7591 108.958 34.6723C108.952 34.6145 108.969 34.5653 109.009 34.5248C109.055 34.4843 109.104 34.4641 109.156 34.4641H109.569C109.621 34.4641 109.664 34.4756 109.698 34.4988C109.733 34.5219 109.761 34.5711 109.784 34.6463C109.819 34.7331 109.87 34.8285 109.939 34.9327C110.008 35.0426 110.114 35.1351 110.258 35.2104C110.401 35.2913 110.602 35.3318 110.861 35.3318C111.13 35.3318 111.357 35.2942 111.541 35.219C111.724 35.1438 111.862 35.0166 111.954 34.8372C112.052 34.6579 112.1 34.4091 112.1 34.0909V33.5009C111.963 33.6802 111.782 33.8306 111.558 33.9521C111.334 34.0678 111.053 34.1256 110.714 34.1256C110.393 34.1256 110.117 34.0707 109.888 33.9608C109.658 33.8451 109.469 33.6918 109.319 33.5009C109.176 33.3042 109.067 33.0814 108.992 32.8327C108.923 32.5839 108.883 32.3236 108.872 32.0517C108.866 31.8897 108.866 31.7306 108.872 31.5744C108.883 31.3025 108.923 31.0422 108.992 30.7934C109.067 30.5447 109.176 30.3219 109.319 30.1252C109.469 29.9285 109.658 29.7752 109.888 29.6653C110.117 29.5496 110.393 29.4918 110.714 29.4918C111.059 29.4918 111.343 29.5554 111.567 29.6827C111.796 29.8099 111.983 29.969 112.126 30.1599V29.7868C112.126 29.729 112.143 29.6798 112.178 29.6393C112.218 29.5988 112.267 29.5785 112.324 29.5785H112.72C112.778 29.5785 112.826 29.5988 112.867 29.6393C112.907 29.6798 112.927 29.729 112.927 29.7868V33.9955C112.927 34.3831 112.861 34.7273 112.729 35.0281C112.603 35.329 112.39 35.5661 112.092 35.7397C111.799 35.9132 111.403 36 110.904 36ZM110.886 33.4314C111.173 33.4314 111.403 33.3649 111.575 33.2318C111.753 33.0988 111.882 32.931 111.963 32.7285C112.049 32.5261 112.095 32.3207 112.1 32.1124C112.106 32.0314 112.109 31.9331 112.109 31.8174C112.109 31.6959 112.106 31.5947 112.1 31.5137C112.095 31.3054 112.049 31.1 111.963 30.8975C111.882 30.6951 111.753 30.5273 111.575 30.3942C111.403 30.2612 111.173 30.1947 110.886 30.1947C110.599 30.1947 110.37 30.2612 110.198 30.3942C110.025 30.5215 109.902 30.6922 109.827 30.9062C109.753 31.1145 109.71 31.3401 109.698 31.5831C109.692 31.7335 109.692 31.8868 109.698 32.043C109.71 32.286 109.753 32.5145 109.827 32.7285C109.902 32.9368 110.025 33.1075 110.198 33.2405C110.37 33.3678 110.599 33.4314 110.886 33.4314Z" fill="#222222"/>
<path d="M105.766 36C105.375 36 105.054 35.948 104.801 35.8438C104.555 35.7397 104.359 35.6124 104.216 35.462C104.078 35.3174 103.978 35.1699 103.915 35.0194C103.857 34.8748 103.826 34.7591 103.82 34.6723C103.814 34.6145 103.831 34.5653 103.871 34.5248C103.917 34.4843 103.966 34.4641 104.018 34.4641H104.431C104.483 34.4641 104.526 34.4756 104.56 34.4988C104.595 34.5219 104.623 34.5711 104.646 34.6463C104.681 34.7331 104.732 34.8285 104.801 34.9327C104.87 35.0426 104.976 35.1351 105.12 35.2104C105.263 35.2913 105.464 35.3318 105.723 35.3318C105.992 35.3318 106.219 35.2942 106.403 35.219C106.587 35.1438 106.724 35.0166 106.816 34.8372C106.914 34.6579 106.962 34.4091 106.962 34.0909V33.5009C106.825 33.6802 106.644 33.8306 106.42 33.9521C106.196 34.0678 105.915 34.1256 105.576 34.1256C105.255 34.1256 104.979 34.0707 104.75 33.9608C104.52 33.8451 104.331 33.6918 104.181 33.5009C104.038 33.3042 103.929 33.0814 103.854 32.8327C103.785 32.5839 103.745 32.3236 103.734 32.0517C103.728 31.8897 103.728 31.7306 103.734 31.5744C103.745 31.3025 103.785 31.0422 103.854 30.7934C103.929 30.5447 104.038 30.3219 104.181 30.1252C104.331 29.9285 104.52 29.7752 104.75 29.6653C104.979 29.5496 105.255 29.4918 105.576 29.4918C105.921 29.4918 106.205 29.5554 106.429 29.6827C106.658 29.8099 106.845 29.969 106.988 30.1599V29.7868C106.988 29.729 107.006 29.6798 107.04 29.6393C107.08 29.5988 107.129 29.5785 107.186 29.5785H107.582C107.64 29.5785 107.689 29.5988 107.729 29.6393C107.769 29.6798 107.789 29.729 107.789 29.7868V33.9955C107.789 34.3831 107.723 34.7273 107.591 35.0281C107.465 35.329 107.252 35.5661 106.954 35.7397C106.661 35.9132 106.265 36 105.766 36ZM105.748 33.4314C106.035 33.4314 106.265 33.3649 106.437 33.2318C106.615 33.0988 106.744 32.931 106.825 32.7285C106.911 32.5261 106.957 32.3207 106.962 32.1124C106.968 32.0314 106.971 31.9331 106.971 31.8174C106.971 31.6959 106.968 31.5947 106.962 31.5137C106.957 31.3054 106.911 31.1 106.825 30.8975C106.744 30.6951 106.615 30.5273 106.437 30.3942C106.265 30.2612 106.035 30.1947 105.748 30.1947C105.461 30.1947 105.232 30.2612 105.06 30.3942C104.887 30.5215 104.764 30.6922 104.689 30.9062C104.615 31.1145 104.572 31.3401 104.56 31.5831C104.555 31.7335 104.555 31.8868 104.56 32.043C104.572 32.286 104.615 32.5145 104.689 32.7285C104.764 32.9368 104.887 33.1075 105.06 33.2405C105.232 33.3678 105.461 33.4314 105.748 33.4314Z" fill="#222222"/>
<path d="M102.045 34.0909C101.988 34.0909 101.939 34.0735 101.899 34.0388C101.865 33.9983 101.847 33.9492 101.847 33.8913V29.7781C101.847 29.7202 101.865 29.674 101.899 29.6392C101.939 29.5988 101.988 29.5785 102.045 29.5785H102.459C102.516 29.5785 102.562 29.5988 102.597 29.6392C102.637 29.674 102.657 29.7202 102.657 29.7781V33.8913C102.657 33.9492 102.637 33.9983 102.597 34.0388C102.562 34.0735 102.516 34.0909 102.459 34.0909H102.045ZM101.977 28.7368C101.919 28.7368 101.87 28.7194 101.83 28.6847C101.796 28.6442 101.779 28.595 101.779 28.5372V28.0686C101.779 28.0107 101.796 27.9616 101.83 27.9211C101.87 27.8806 101.919 27.8603 101.977 27.8603H102.519C102.576 27.8603 102.625 27.8806 102.665 27.9211C102.706 27.9616 102.726 28.0107 102.726 28.0686V28.5372C102.726 28.595 102.706 28.6442 102.665 28.6847C102.625 28.7194 102.576 28.7368 102.519 28.7368H101.977Z" fill="#222222"/>
<path d="M96.4054 34.0909C96.3423 34.0909 96.2935 34.0736 96.2591 34.0389C96.2246 33.9984 96.2074 33.9492 96.2074 33.8913V28.2248C96.2074 28.1612 96.2246 28.112 96.2591 28.0773C96.2935 28.0368 96.3423 28.0165 96.4054 28.0165H98.7646C99.1951 28.0165 99.5452 28.0889 99.815 28.2335C100.091 28.3723 100.291 28.5632 100.418 28.8062C100.55 29.0492 100.616 29.3211 100.616 29.6219C100.616 29.8591 100.576 30.0645 100.495 30.238C100.421 30.4058 100.326 30.5446 100.211 30.6546C100.096 30.7587 99.9843 30.8397 99.8753 30.8975C100.099 31.0075 100.297 31.1868 100.469 31.4355C100.647 31.6843 100.736 31.9851 100.736 32.338C100.736 32.6562 100.665 32.9484 100.521 33.2145C100.378 33.4806 100.162 33.6946 99.8753 33.8566C99.594 34.0128 99.2467 34.0909 98.8335 34.0909H96.4054ZM97.0512 33.388H98.7215C99.0889 33.388 99.373 33.2868 99.5739 33.0843C99.7748 32.8818 99.8753 32.6331 99.8753 32.338C99.8753 32.0314 99.7748 31.7798 99.5739 31.5831C99.373 31.3806 99.0889 31.2794 98.7215 31.2794H97.0512V33.388ZM97.0512 30.5851H98.6354C99.0028 30.5851 99.2812 30.5013 99.4706 30.3335C99.66 30.1599 99.7547 29.9256 99.7547 29.6306C99.7547 29.3355 99.66 29.1099 99.4706 28.9537C99.2812 28.7975 99.0028 28.7194 98.6354 28.7194H97.0512V30.5851Z" fill="#222222"/>
<path d="M90.9586 34.1777C90.3617 34.1777 89.8881 33.9955 89.538 33.631C89.1879 33.2608 88.9956 32.7575 88.9611 32.1211C88.9554 32.0459 88.9525 31.9504 88.9525 31.8347C88.9525 31.7132 88.9554 31.6149 88.9611 31.5397C88.9841 31.129 89.0788 30.7703 89.2453 30.4637C89.4117 30.1513 89.6384 29.9112 89.9254 29.7434C90.2182 29.5756 90.5597 29.4918 90.95 29.4918C91.3863 29.4918 91.7508 29.5843 92.0435 29.7694C92.342 29.9546 92.5687 30.2178 92.7237 30.5591C92.8787 30.9004 92.9562 31.2996 92.9562 31.7566V31.9042C92.9562 31.9678 92.9361 32.017 92.8959 32.0517C92.8615 32.0864 92.8155 32.1037 92.7581 32.1037H89.7791C89.7791 32.1095 89.7791 32.1211 89.7791 32.1385C89.7791 32.1558 89.7791 32.1703 89.7791 32.1818C89.7906 32.419 89.8422 32.6418 89.9341 32.85C90.0259 33.0525 90.1579 33.2174 90.3301 33.3447C90.508 33.4719 90.7147 33.5356 90.95 33.5356C91.1567 33.5356 91.3289 33.5037 91.4666 33.4401C91.6044 33.3765 91.7163 33.3071 91.8024 33.2318C91.8885 33.1509 91.9459 33.0872 91.9746 33.0409C92.0263 32.9715 92.0665 32.931 92.0952 32.9194C92.1239 32.9021 92.1698 32.8934 92.2329 32.8934H92.6548C92.7065 32.8934 92.7495 32.9108 92.784 32.9455C92.8241 32.9744 92.8414 33.0178 92.8356 33.0756C92.8299 33.1624 92.784 33.2694 92.6979 33.3967C92.6118 33.5182 92.4884 33.6397 92.3276 33.7612C92.1727 33.8827 91.9775 33.9839 91.7422 34.0649C91.5126 34.1401 91.2514 34.1777 90.9586 34.1777ZM89.7791 31.505H92.1382V31.479C92.1382 31.2186 92.0894 30.9872 91.9918 30.7847C91.9 30.5823 91.7651 30.4232 91.5872 30.3075C91.4092 30.186 91.1969 30.1252 90.95 30.1252C90.7032 30.1252 90.4908 30.186 90.3129 30.3075C90.1407 30.4232 90.0087 30.5823 89.9168 30.7847C89.825 30.9872 89.7791 31.2186 89.7791 31.479V31.505Z" fill="#222222"/>
<path d="M87.2802 34.091C87.2228 34.091 87.174 34.0737 87.1338 34.039C87.0994 33.9985 87.0822 33.9493 87.0822 33.8914V28.1295C87.0822 28.0716 87.0994 28.0253 87.1338 27.9906C87.174 27.9501 87.2228 27.9299 87.2802 27.9299H87.6849C87.748 27.9299 87.7968 27.9501 87.8312 27.9906C87.8657 28.0253 87.8829 28.0716 87.8829 28.1295V33.8914C87.8829 33.9493 87.8657 33.9985 87.8312 34.039C87.7968 34.0737 87.748 34.091 87.6849 34.091H87.2802Z" fill="#222222"/>
<path d="M85.1861 34.0909C85.1287 34.0909 85.0799 34.0735 85.0397 34.0388C85.0053 33.9983 84.9881 33.9492 84.9881 33.8913V29.7781C84.9881 29.7202 85.0053 29.674 85.0397 29.6392C85.0799 29.5988 85.1287 29.5785 85.1861 29.5785H85.5994C85.6568 29.5785 85.7027 29.5988 85.7371 29.6392C85.7773 29.674 85.7974 29.7202 85.7974 29.7781V33.8913C85.7974 33.9492 85.7773 33.9983 85.7371 34.0388C85.7027 34.0735 85.6568 34.0909 85.5994 34.0909H85.1861ZM85.1172 28.7368C85.0598 28.7368 85.011 28.7194 84.9708 28.6847C84.9364 28.6442 84.9192 28.595 84.9192 28.5372V28.0686C84.9192 28.0107 84.9364 27.9616 84.9708 27.9211C85.011 27.8806 85.0598 27.8603 85.1172 27.8603H85.6597C85.7171 27.8603 85.7658 27.8806 85.806 27.9211C85.8462 27.9616 85.8663 28.0107 85.8663 28.0686V28.5372C85.8663 28.595 85.8462 28.6442 85.806 28.6847C85.7658 28.7194 85.7171 28.7368 85.6597 28.7368H85.1172Z" fill="#222222"/>
<path d="M77.5342 34.0908C77.4768 34.0908 77.428 34.0735 77.3878 34.0388C77.3534 33.9983 77.3362 33.9491 77.3362 33.8913V29.778C77.3362 29.7202 77.3534 29.6739 77.3878 29.6392C77.428 29.5987 77.4768 29.5784 77.5342 29.5784H77.9217C77.9791 29.5784 78.025 29.5987 78.0594 29.6392C78.0996 29.6739 78.1197 29.7202 78.1197 29.778V30.0818C78.2517 29.9024 78.4182 29.7607 78.6191 29.6565C78.82 29.5466 79.0611 29.4917 79.3423 29.4917C79.9909 29.4859 80.4501 29.752 80.7199 30.29C80.8519 30.047 81.0442 29.8532 81.2968 29.7086C81.5493 29.564 81.8363 29.4917 82.1578 29.4917C82.4563 29.4917 82.726 29.5611 82.9671 29.6999C83.2139 29.8388 83.4062 30.0499 83.544 30.3334C83.6875 30.6111 83.7592 30.9611 83.7592 31.3834V33.8913C83.7592 33.9491 83.7392 33.9983 83.699 34.0388C83.6645 34.0735 83.6186 34.0908 83.5612 34.0908H83.1565C83.0991 34.0908 83.0503 34.0735 83.0102 34.0388C82.9757 33.9983 82.9585 33.9491 82.9585 33.8913V31.4615C82.9585 31.1375 82.9126 30.883 82.8207 30.6979C82.7289 30.5127 82.6055 30.3826 82.4505 30.3074C82.2955 30.2322 82.1262 30.1946 81.9425 30.1946C81.7933 30.1946 81.6412 30.2322 81.4862 30.3074C81.3312 30.3826 81.2021 30.5127 81.0988 30.6979C81.0012 30.883 80.9524 31.1375 80.9524 31.4615V33.8913C80.9524 33.9491 80.9323 33.9983 80.8921 34.0388C80.8577 34.0735 80.8117 34.0908 80.7543 34.0908H80.3497C80.2923 34.0908 80.2435 34.0735 80.2033 34.0388C80.1689 33.9983 80.1516 33.9491 80.1516 33.8913V31.4615C80.1516 31.1375 80.1029 30.883 80.0053 30.6979C79.9077 30.5127 79.7814 30.3826 79.6264 30.3074C79.4715 30.2322 79.3079 30.1946 79.1357 30.1946C78.9864 30.1946 78.8343 30.2322 78.6793 30.3074C78.5244 30.3826 78.3952 30.5127 78.2919 30.6979C78.1943 30.883 78.1455 31.1346 78.1455 31.4528V33.8913C78.1455 33.9491 78.1254 33.9983 78.0852 34.0388C78.0508 34.0735 78.0049 34.0908 77.9475 34.0908H77.5342Z" fill="#222222"/>
<path d="M74.0308 34.1778C73.5314 34.1778 73.1124 34.0997 72.7737 33.9435C72.435 33.7873 72.1739 33.5877 71.9902 33.3447C71.8122 33.096 71.7175 32.8357 71.7061 32.5638C71.7061 32.5175 71.7233 32.477 71.7577 32.4423C71.7979 32.4018 71.8438 32.3815 71.8955 32.3815H72.3346C72.4035 32.3815 72.4551 32.3989 72.4896 32.4336C72.524 32.4683 72.547 32.5088 72.5584 32.5551C72.5929 32.6939 72.6646 32.8328 72.7737 32.9716C72.8828 33.1047 73.0377 33.2175 73.2386 33.31C73.4453 33.3968 73.7093 33.4402 74.0308 33.4402C74.5244 33.4402 74.886 33.3534 75.1156 33.1799C75.351 33.0005 75.4686 32.7633 75.4686 32.4683C75.4686 32.2658 75.4055 32.1038 75.2792 31.9823C75.1587 31.8551 74.9721 31.7423 74.7196 31.6439C74.467 31.5456 74.1398 31.4385 73.738 31.3228C73.319 31.2014 72.9717 31.0683 72.6962 30.9237C72.4207 30.779 72.214 30.5997 72.0763 30.3857C71.9443 30.1716 71.8783 29.8997 71.8783 29.57C71.8783 29.2576 71.9615 28.9799 72.1279 28.7369C72.2944 28.4881 72.5355 28.2914 72.8512 28.1468C73.1669 28.0022 73.5457 27.9299 73.9877 27.9299C74.3436 27.9299 74.6535 27.979 74.9176 28.0774C75.1874 28.17 75.4112 28.2972 75.5892 28.4592C75.7671 28.6154 75.902 28.7861 75.9938 28.9712C76.0857 29.1505 76.1345 29.327 76.1402 29.5005C76.1402 29.541 76.1259 29.5815 76.0972 29.622C76.0685 29.6567 76.0225 29.6741 75.9594 29.6741H75.5031C75.4629 29.6741 75.4198 29.6625 75.3739 29.6394C75.3337 29.6162 75.3022 29.5728 75.2792 29.5092C75.2448 29.272 75.1127 29.0724 74.8831 28.9104C74.6535 28.7485 74.3551 28.6675 73.9877 28.6675C73.6146 28.6675 73.3104 28.7398 73.075 28.8844C72.8454 29.029 72.7306 29.2547 72.7306 29.5613C72.7306 29.758 72.7852 29.9228 72.8942 30.0559C73.0033 30.1832 73.1755 30.296 73.4108 30.3943C73.6462 30.4927 73.9533 30.5968 74.3321 30.7067C74.7913 30.834 75.1673 30.97 75.46 31.1146C75.7528 31.2534 75.968 31.4299 76.1058 31.6439C76.2493 31.8522 76.321 32.1212 76.321 32.4509C76.321 32.8154 76.2263 33.1278 76.0369 33.3881C75.8475 33.6427 75.5806 33.8394 75.2362 33.9782C74.8975 34.1113 74.4957 34.1778 74.0308 34.1778Z" fill="#222222"/>
<path d="M67.6659 34.7418C67.6199 34.7418 67.5826 34.7245 67.5539 34.6898C67.531 34.6551 67.5223 34.6117 67.5281 34.5596L67.7261 33.3187C67.7376 33.2493 67.7606 33.1914 67.795 33.1451C67.8352 33.0931 67.8926 33.067 67.9672 33.067H68.5441C68.5842 33.067 68.6158 33.0815 68.6388 33.1104C68.6675 33.1394 68.6818 33.1741 68.6818 33.2146C68.6818 33.2608 68.6732 33.3071 68.656 33.3534L68.1997 34.5423C68.1767 34.6001 68.1451 34.6464 68.105 34.6811C68.0705 34.7216 68.0189 34.7418 67.95 34.7418H67.6659Z" fill="#222222"/>
<path d="M64.423 36C64.0327 36 63.7113 35.948 63.4587 35.8438C63.2119 35.7397 63.0167 35.6124 62.8732 35.462C62.7355 35.3174 62.635 35.1699 62.5719 35.0194C62.5145 34.8748 62.4829 34.7591 62.4772 34.6723C62.4714 34.6145 62.4887 34.5653 62.5288 34.5248C62.5748 34.4843 62.6236 34.4641 62.6752 34.4641H63.0885C63.1402 34.4641 63.1832 34.4756 63.2176 34.4988C63.2521 34.5219 63.2808 34.5711 63.3037 34.6463C63.3382 34.7331 63.3898 34.8285 63.4587 34.9327C63.5276 35.0426 63.6338 35.1351 63.7773 35.2104C63.9208 35.2913 64.1217 35.3318 64.38 35.3318C64.6498 35.3318 64.8765 35.2942 65.0602 35.219C65.2439 35.1438 65.3816 35.0166 65.4735 34.8372C65.571 34.6579 65.6198 34.4091 65.6198 34.0909V33.5009C65.4821 33.6802 65.3013 33.8306 65.0774 33.9521C64.8535 34.0678 64.5723 34.1256 64.2336 34.1256C63.9122 34.1256 63.6367 34.0707 63.4071 33.9608C63.1775 33.8451 62.988 33.6918 62.8388 33.5009C62.6953 33.3042 62.5862 33.0814 62.5116 32.8327C62.4427 32.5839 62.4026 32.3236 62.3911 32.0517C62.3853 31.8897 62.3853 31.7306 62.3911 31.5744C62.4026 31.3025 62.4427 31.0422 62.5116 30.7934C62.5862 30.5447 62.6953 30.3219 62.8388 30.1252C62.988 29.9285 63.1775 29.7752 63.4071 29.6653C63.6367 29.5496 63.9122 29.4918 64.2336 29.4918C64.578 29.4918 64.8622 29.5554 65.086 29.6827C65.3156 29.8099 65.5022 29.969 65.6457 30.1599V29.7868C65.6457 29.729 65.6629 29.6798 65.6973 29.6393C65.7375 29.5988 65.7863 29.5785 65.8437 29.5785H66.2398C66.2972 29.5785 66.3459 29.5988 66.3861 29.6393C66.4263 29.6798 66.4464 29.729 66.4464 29.7868V33.9955C66.4464 34.3831 66.3804 34.7273 66.2484 35.0281C66.1221 35.329 65.9097 35.5661 65.6112 35.7397C65.3185 35.9132 64.9224 36 64.423 36ZM64.4058 33.4314C64.6928 33.4314 64.9224 33.3649 65.0946 33.2318C65.2726 33.0988 65.4017 32.931 65.4821 32.7285C65.5682 32.5261 65.6141 32.3207 65.6198 32.1124C65.6256 32.0314 65.6284 31.9331 65.6284 31.8174C65.6284 31.6959 65.6256 31.5947 65.6198 31.5137C65.6141 31.3054 65.5682 31.1 65.4821 30.8975C65.4017 30.6951 65.2726 30.5273 65.0946 30.3942C64.9224 30.2612 64.6928 30.1947 64.4058 30.1947C64.1188 30.1947 63.8892 30.2612 63.717 30.3942C63.5448 30.5215 63.4214 30.6922 63.3468 30.9062C63.2722 31.1145 63.2291 31.3401 63.2176 31.5831C63.2119 31.7335 63.2119 31.8868 63.2176 32.043C63.2291 32.286 63.2722 32.5145 63.3468 32.7285C63.4214 32.9368 63.5448 33.1075 63.717 33.2405C63.8892 33.3678 64.1188 33.4314 64.4058 33.4314Z" fill="#222222"/>
<path d="M60.7016 34.0909C60.6442 34.0909 60.5954 34.0735 60.5552 34.0388C60.5208 33.9983 60.5036 33.9492 60.5036 33.8913V29.7781C60.5036 29.7202 60.5208 29.674 60.5552 29.6392C60.5954 29.5988 60.6442 29.5785 60.7016 29.5785H61.1149C61.1723 29.5785 61.2182 29.5988 61.2526 29.6392C61.2928 29.674 61.3129 29.7202 61.3129 29.7781V33.8913C61.3129 33.9492 61.2928 33.9983 61.2526 34.0388C61.2182 34.0735 61.1723 34.0909 61.1149 34.0909H60.7016ZM60.6327 28.7368C60.5753 28.7368 60.5265 28.7194 60.4864 28.6847C60.4519 28.6442 60.4347 28.595 60.4347 28.5372V28.0686C60.4347 28.0107 60.4519 27.9616 60.4864 27.9211C60.5265 27.8806 60.5753 27.8603 60.6327 27.8603H61.1751C61.2325 27.8603 61.2813 27.8806 61.3215 27.9211C61.3617 27.9616 61.3818 28.0107 61.3818 28.0686V28.5372C61.3818 28.595 61.3617 28.6442 61.3215 28.6847C61.2813 28.7194 61.2325 28.7368 61.1751 28.7368H60.6327Z" fill="#222222"/>
<path d="M55.0623 34.0909C54.9991 34.0909 54.9504 34.0736 54.9159 34.0389C54.8815 33.9984 54.8643 33.9492 54.8643 33.8913V28.2248C54.8643 28.1612 54.8815 28.112 54.9159 28.0773C54.9504 28.0368 54.9991 28.0165 55.0623 28.0165H57.4214C57.8519 28.0165 58.2021 28.0889 58.4718 28.2335C58.7474 28.3723 58.9483 28.5632 59.0745 28.8062C59.2066 29.0492 59.2726 29.3211 59.2726 29.6219C59.2726 29.8591 59.2324 30.0645 59.152 30.238C59.0774 30.4058 58.9827 30.5446 58.8679 30.6546C58.7531 30.7587 58.6412 30.8397 58.5321 30.8975C58.756 31.0075 58.954 31.1868 59.1262 31.4355C59.3041 31.6843 59.3931 31.9851 59.3931 32.338C59.3931 32.6562 59.3214 32.9484 59.1779 33.2145C59.0344 33.4806 58.8191 33.6946 58.5321 33.8566C58.2509 34.0128 57.9036 34.0909 57.4903 34.0909H55.0623ZM55.708 33.388H57.3784C57.7457 33.388 58.0299 33.2868 58.2308 33.0843C58.4317 32.8818 58.5321 32.6331 58.5321 32.338C58.5321 32.0314 58.4317 31.7798 58.2308 31.5831C58.0299 31.3806 57.7457 31.2794 57.3784 31.2794H55.708V33.388ZM55.708 30.5851H57.2923C57.6596 30.5851 57.938 30.5013 58.1274 30.3335C58.3169 30.1599 58.4116 29.9256 58.4116 29.6306C58.4116 29.3355 58.3169 29.1099 58.1274 28.9537C57.938 28.7975 57.6596 28.7194 57.2923 28.7194H55.708V30.5851Z" fill="#222222"/>
<path d="M47.619 34.0909C47.5616 34.0909 47.5129 34.0736 47.4727 34.0389C47.4382 33.9984 47.421 33.9492 47.421 33.8913V29.7781C47.421 29.7203 47.4382 29.674 47.4727 29.6393C47.5129 29.5988 47.5616 29.5785 47.619 29.5785H48.0237C48.0811 29.5785 48.127 29.5988 48.1615 29.6393C48.2017 29.674 48.2217 29.7203 48.2217 29.7781V30.1599C48.371 29.9632 48.5575 29.8042 48.7814 29.6827C49.011 29.5554 49.3037 29.4918 49.6596 29.4918C50.0327 29.4918 50.3484 29.5756 50.6067 29.7434C50.8708 29.9054 51.0688 30.1339 51.2008 30.429C51.3386 30.7182 51.4074 31.0566 51.4074 31.4442V33.8913C51.4074 33.9492 51.3874 33.9984 51.3472 34.0389C51.3127 34.0736 51.2668 34.0909 51.2094 34.0909H50.7789C50.7215 34.0909 50.6727 34.0736 50.6326 34.0389C50.5981 33.9984 50.5809 33.9492 50.5809 33.8913V31.4876C50.5809 31.0827 50.4833 30.7674 50.2881 30.5418C50.093 30.3104 49.806 30.1947 49.4271 30.1947C49.0713 30.1947 48.7843 30.3104 48.5662 30.5418C48.3538 30.7674 48.2476 31.0827 48.2476 31.4876V33.8913C48.2476 33.9492 48.2275 33.9984 48.1873 34.0389C48.1529 34.0736 48.1069 34.0909 48.0495 34.0909H47.619Z" fill="#222222"/>
<path d="M45.533 34.0909C45.4756 34.0909 45.4268 34.0735 45.3866 34.0388C45.3522 33.9983 45.3349 33.9492 45.3349 33.8913V29.7781C45.3349 29.7202 45.3522 29.674 45.3866 29.6392C45.4268 29.5988 45.4756 29.5785 45.533 29.5785H45.9462C46.0036 29.5785 46.0496 29.5988 46.084 29.6392C46.1242 29.674 46.1443 29.7202 46.1443 29.7781V33.8913C46.1443 33.9492 46.1242 33.9983 46.084 34.0388C46.0496 34.0735 46.0036 34.0909 45.9462 34.0909H45.533ZM45.4641 28.7368C45.4067 28.7368 45.3579 28.7194 45.3177 28.6847C45.2833 28.6442 45.2661 28.595 45.2661 28.5372V28.0686C45.2661 28.0107 45.2833 27.9616 45.3177 27.9211C45.3579 27.8806 45.4067 27.8603 45.4641 27.8603H46.0065C46.0639 27.8603 46.1127 27.8806 46.1529 27.9211C46.1931 27.9616 46.2131 28.0107 46.2131 28.0686V28.5372C46.2131 28.595 46.1931 28.6442 46.1529 28.6847C46.1127 28.7194 46.0639 28.7368 46.0065 28.7368H45.4641Z" fill="#222222"/>
<path d="M39.5677 34.0909C39.4931 34.0909 39.4328 34.0707 39.3869 34.0302C39.3467 33.9897 39.318 33.9318 39.3008 33.8566L38.1901 28.2855C38.1844 28.2624 38.1815 28.2422 38.1815 28.2248C38.1815 28.2074 38.1815 28.1959 38.1815 28.1901C38.1815 28.1438 38.1987 28.1033 38.2332 28.0686C38.2676 28.0339 38.3078 28.0165 38.3537 28.0165H38.8014C38.922 28.0165 38.9909 28.0657 39.0081 28.1641L39.8863 32.6417L40.8162 29.5698C40.8334 29.5178 40.8621 29.4715 40.9023 29.431C40.9482 29.3847 41.0113 29.3616 41.0917 29.3616H41.4103C41.4964 29.3616 41.5595 29.3847 41.5997 29.431C41.6399 29.4715 41.6657 29.5178 41.6772 29.5698L42.6157 32.6417L43.4853 28.1641C43.5025 28.0657 43.5743 28.0165 43.7005 28.0165H44.1483C44.1942 28.0165 44.2344 28.0339 44.2688 28.0686C44.3032 28.1033 44.3205 28.1438 44.3205 28.1901C44.3205 28.1959 44.3176 28.2074 44.3118 28.2248C44.3118 28.2422 44.3118 28.2624 44.3118 28.2855L43.2011 33.8566C43.1839 33.9318 43.1524 33.9897 43.1064 34.0302C43.0663 34.0707 43.0089 34.0909 42.9342 34.0909H42.5985C42.5181 34.0909 42.4549 34.0707 42.409 34.0302C42.3631 33.9897 42.3315 33.9376 42.3143 33.874L41.2467 30.5678L40.1876 33.874C40.1647 33.9376 40.1302 33.9897 40.0843 34.0302C40.0441 34.0707 39.9839 34.0909 39.9035 34.0909H39.5677Z" fill="#222222"/>
<path d="M34.2595 34.7418C34.2136 34.7418 34.1762 34.7245 34.1475 34.6898C34.1246 34.6551 34.116 34.6117 34.1217 34.5596L34.3197 33.3187C34.3312 33.2493 34.3542 33.1914 34.3886 33.1451C34.4288 33.0931 34.4862 33.067 34.5608 33.067H35.1377C35.1779 33.067 35.2094 33.0815 35.2324 33.1104C35.2611 33.1394 35.2755 33.1741 35.2755 33.2146C35.2755 33.2608 35.2668 33.3071 35.2496 33.3534L34.7933 34.5423C34.7703 34.6001 34.7388 34.6464 34.6986 34.6811C34.6641 34.7216 34.6125 34.7418 34.5436 34.7418H34.2595Z" fill="#222222"/>
<path d="M29.2795 34.091C29.2221 34.091 29.1733 34.0737 29.1331 34.039C29.0987 33.9985 29.0815 33.9493 29.0815 33.8914V28.1295C29.0815 28.0716 29.0987 28.0253 29.1331 27.9906C29.1733 27.9501 29.2221 27.9299 29.2795 27.9299H29.71C29.7732 27.9299 29.8219 27.9501 29.8564 27.9906C29.8908 28.0253 29.908 28.0716 29.908 28.1295V30.1514C30.063 29.9547 30.2524 29.7956 30.4763 29.6741C30.7002 29.5526 30.9843 29.4919 31.3287 29.4919C31.7018 29.4919 32.0175 29.5757 32.2758 29.7435C32.5398 29.9055 32.7379 30.134 32.8699 30.429C33.0076 30.7183 33.0765 31.0567 33.0765 31.4443V33.8914C33.0765 33.9493 33.0593 33.9985 33.0249 34.039C32.9904 34.0737 32.9416 34.091 32.8785 34.091H32.448C32.3906 34.091 32.3418 34.0737 32.3016 34.039C32.2672 33.9985 32.25 33.9493 32.25 33.8914V31.4877C32.25 31.0828 32.1524 30.7675 31.9572 30.5419C31.7621 30.3104 31.4751 30.1947 31.0962 30.1947C30.7403 30.1947 30.4533 30.3104 30.2352 30.5419C30.0171 30.7675 29.908 31.0828 29.908 31.4877V33.8914C29.908 33.9493 29.8908 33.9985 29.8564 34.039C29.8219 34.0737 29.7732 34.091 29.71 34.091H29.2795Z" fill="#222222"/>
<path d="M25.7709 36C25.3806 36 25.0592 35.948 24.8066 35.8438C24.5598 35.7397 24.3646 35.6124 24.2211 35.462C24.0834 35.3174 23.9829 35.1699 23.9198 35.0194C23.8624 34.8748 23.8308 34.7591 23.8251 34.6723C23.8193 34.6145 23.8366 34.5653 23.8767 34.5248C23.9227 34.4843 23.9715 34.4641 24.0231 34.4641H24.4364C24.4881 34.4641 24.5311 34.4756 24.5655 34.4988C24.6 34.5219 24.6287 34.5711 24.6516 34.6463C24.6861 34.7331 24.7377 34.8285 24.8066 34.9327C24.8755 35.0426 24.9817 35.1351 25.1252 35.2104C25.2687 35.2913 25.4696 35.3318 25.7279 35.3318C25.9977 35.3318 26.2244 35.2942 26.4081 35.219C26.5918 35.1438 26.7295 35.0166 26.8214 34.8372C26.9189 34.6579 26.9677 34.4091 26.9677 34.0909V33.5009C26.83 33.6802 26.6492 33.8306 26.4253 33.9521C26.2014 34.0678 25.9202 34.1256 25.5815 34.1256C25.2601 34.1256 24.9846 34.0707 24.755 33.9608C24.5254 33.8451 24.3359 33.6918 24.1867 33.5009C24.0432 33.3042 23.9341 33.0814 23.8595 32.8327C23.7906 32.5839 23.7505 32.3236 23.739 32.0517C23.7332 31.8897 23.7332 31.7306 23.739 31.5744C23.7505 31.3025 23.7906 31.0422 23.8595 30.7934C23.9341 30.5447 24.0432 30.3219 24.1867 30.1252C24.3359 29.9285 24.5254 29.7752 24.755 29.6653C24.9846 29.5496 25.2601 29.4918 25.5815 29.4918C25.9259 29.4918 26.2101 29.5554 26.4339 29.6827C26.6635 29.8099 26.8501 29.969 26.9936 30.1599V29.7868C26.9936 29.729 27.0108 29.6798 27.0452 29.6393C27.0854 29.5988 27.1342 29.5785 27.1916 29.5785H27.5877C27.6451 29.5785 27.6938 29.5988 27.734 29.6393C27.7742 29.6798 27.7943 29.729 27.7943 29.7868V33.9955C27.7943 34.3831 27.7283 34.7273 27.5963 35.0281C27.47 35.329 27.2576 35.5661 26.9591 35.7397C26.6664 35.9132 26.2703 36 25.7709 36ZM25.7537 33.4314C26.0407 33.4314 26.2703 33.3649 26.4425 33.2318C26.6205 33.0988 26.7496 32.931 26.83 32.7285C26.9161 32.5261 26.962 32.3207 26.9677 32.1124C26.9735 32.0314 26.9763 31.9331 26.9763 31.8174C26.9763 31.6959 26.9735 31.5947 26.9677 31.5137C26.962 31.3054 26.9161 31.1 26.83 30.8975C26.7496 30.6951 26.6205 30.5273 26.4425 30.3942C26.2703 30.2612 26.0407 30.1947 25.7537 30.1947C25.4667 30.1947 25.2371 30.2612 25.0649 30.3942C24.8927 30.5215 24.7693 30.6922 24.6947 30.9062C24.6201 31.1145 24.577 31.3401 24.5655 31.5831C24.5598 31.7335 24.5598 31.8868 24.5655 32.043C24.577 32.286 24.6201 32.5145 24.6947 32.7285C24.7693 32.9368 24.8927 33.1075 25.0649 33.2405C25.2371 33.3678 25.4667 33.4314 25.7537 33.4314Z" fill="#222222"/>
<path d="M22.0488 34.0909C21.9914 34.0909 21.9426 34.0735 21.9024 34.0388C21.868 33.9983 21.8507 33.9492 21.8507 33.8913V29.7781C21.8507 29.7202 21.868 29.674 21.9024 29.6392C21.9426 29.5988 21.9914 29.5785 22.0488 29.5785H22.462C22.5194 29.5785 22.5654 29.5988 22.5998 29.6392C22.64 29.674 22.6601 29.7202 22.6601 29.7781V33.8913C22.6601 33.9492 22.64 33.9983 22.5998 34.0388C22.5654 34.0735 22.5194 34.0909 22.462 34.0909H22.0488ZM21.9799 28.7368C21.9225 28.7368 21.8737 28.7194 21.8335 28.6847C21.7991 28.6442 21.7819 28.595 21.7819 28.5372V28.0686C21.7819 28.0107 21.7991 27.9616 21.8335 27.9211C21.8737 27.8806 21.9225 27.8603 21.9799 27.8603H22.5223C22.5797 27.8603 22.6285 27.8806 22.6687 27.9211C22.7089 27.9616 22.729 28.0107 22.729 28.0686V28.5372C22.729 28.595 22.7089 28.6442 22.6687 28.6847C22.6285 28.7194 22.5797 28.7368 22.5223 28.7368H21.9799Z" fill="#222222"/>
<path d="M16.0138 34.0909C15.9507 34.0909 15.9019 34.0736 15.8675 34.0389C15.833 33.9984 15.8158 33.9492 15.8158 33.8913V28.2248C15.8158 28.1612 15.833 28.112 15.8675 28.0773C15.9019 28.0368 15.9507 28.0165 16.0138 28.0165H16.4529C16.5161 28.0165 16.5649 28.0368 16.5993 28.0773C16.6395 28.112 16.6596 28.1612 16.6596 28.2248V30.6198H19.6214V28.2248C19.6214 28.1612 19.6386 28.112 19.6731 28.0773C19.7133 28.0368 19.762 28.0165 19.8194 28.0165H20.2586C20.3217 28.0165 20.3705 28.0368 20.4049 28.0773C20.4451 28.112 20.4652 28.1612 20.4652 28.2248V33.8913C20.4652 33.9492 20.4451 33.9984 20.4049 34.0389C20.3705 34.0736 20.3217 34.0909 20.2586 34.0909H19.8194C19.762 34.0909 19.7133 34.0736 19.6731 34.0389C19.6386 33.9984 19.6214 33.9492 19.6214 33.8913V31.4008H16.6596V33.8913C16.6596 33.9492 16.6395 33.9984 16.5993 34.0389C16.5649 34.0736 16.5161 34.0909 16.4529 34.0909H16.0138Z" fill="#222222"/>
<path d="M10.1093 34.1778C9.79362 34.1778 9.52097 34.1228 9.29137 34.0129C9.06177 33.8972 8.87236 33.7439 8.72312 33.553C8.57961 33.3563 8.47055 33.1336 8.39593 32.8848C8.32705 32.6361 8.28687 32.3728 8.27539 32.0952C8.26965 32.0026 8.26678 31.9158 8.26678 31.8348C8.26678 31.7538 8.26965 31.6671 8.27539 31.5745C8.28687 31.3026 8.32705 31.0423 8.39593 30.7935C8.47055 30.5447 8.57961 30.322 8.72312 30.1253C8.87236 29.9286 9.06177 29.7753 9.29137 29.6654C9.52097 29.5497 9.79362 29.4919 10.1093 29.4919C10.448 29.4919 10.7292 29.5526 10.9531 29.6741C11.177 29.7956 11.3606 29.946 11.5041 30.1253V28.1295C11.5041 28.0716 11.5214 28.0253 11.5558 27.9906C11.596 27.9501 11.6448 27.9299 11.7022 27.9299H12.1155C12.1729 27.9299 12.2188 27.9501 12.2532 27.9906C12.2934 28.0253 12.3135 28.0716 12.3135 28.1295V33.8914C12.3135 33.9493 12.2934 33.9985 12.2532 34.039C12.2188 34.0737 12.1729 34.091 12.1155 34.091H11.728C11.6649 34.091 11.6161 34.0737 11.5816 34.039C11.5472 33.9985 11.53 33.9493 11.53 33.8914V33.527C11.3865 33.7121 11.1999 33.8683 10.9703 33.9956C10.7407 34.1171 10.4537 34.1778 10.1093 34.1778ZM10.2901 33.4749C10.5771 33.4749 10.8067 33.4084 10.9789 33.2753C11.1511 33.1423 11.2803 32.9745 11.3664 32.772C11.4525 32.5638 11.4984 32.3526 11.5041 32.1385C11.5099 32.046 11.5128 31.9361 11.5128 31.8088C11.5128 31.6757 11.5099 31.5629 11.5041 31.4704C11.4984 31.2679 11.4496 31.0683 11.3578 30.8716C11.2717 30.6749 11.1397 30.5129 10.9617 30.3857C10.7895 30.2584 10.5657 30.1947 10.2901 30.1947C9.99739 30.1947 9.76492 30.2613 9.59272 30.3943C9.42052 30.5216 9.29711 30.6923 9.22249 30.9063C9.14787 31.1146 9.10483 31.3402 9.09335 31.5832C9.08761 31.7509 9.08761 31.9187 9.09335 32.0865C9.10483 32.3295 9.14787 32.558 9.22249 32.772C9.29711 32.9803 9.42052 33.1509 9.59272 33.284C9.76492 33.4113 9.99739 33.4749 10.2901 33.4749Z" fill="#222222"/>
<path d="M6.58704 34.0909C6.52964 34.0909 6.48085 34.0735 6.44067 34.0388C6.40623 33.9983 6.38901 33.9492 6.38901 33.8913V29.7781C6.38901 29.7202 6.40623 29.674 6.44067 29.6392C6.48085 29.5988 6.52964 29.5785 6.58704 29.5785H7.00032C7.05772 29.5785 7.10364 29.5988 7.13808 29.6392C7.17826 29.674 7.19835 29.7202 7.19835 29.7781V33.8913C7.19835 33.9492 7.17826 33.9983 7.13808 34.0388C7.10364 34.0735 7.05772 34.0909 7.00032 34.0909H6.58704ZM6.51816 28.7368C6.46076 28.7368 6.41197 28.7194 6.37179 28.6847C6.33735 28.6442 6.32013 28.595 6.32013 28.5372V28.0686C6.32013 28.0107 6.33735 27.9616 6.37179 27.9211C6.41197 27.8806 6.46076 27.8603 6.51816 27.8603H7.06059C7.11799 27.8603 7.16678 27.8806 7.20696 27.9211C7.24714 27.9616 7.26723 28.0107 7.26723 28.0686V28.5372C7.26723 28.595 7.24714 28.6442 7.20696 28.6847C7.16678 28.7194 7.11799 28.7368 7.06059 28.7368H6.51816Z" fill="#222222"/>
<path d="M0.947237 34.0909C0.884097 34.0909 0.835307 34.0736 0.800867 34.0389C0.766427 33.9984 0.749207 33.9492 0.749207 33.8913V28.2248C0.749207 28.1612 0.766427 28.112 0.800867 28.0773C0.835307 28.0368 0.884097 28.0165 0.947237 28.0165H3.30638C3.73688 28.0165 4.08702 28.0889 4.3568 28.2335C4.63232 28.3723 4.83322 28.5632 4.9595 28.8062C5.09152 29.0492 5.15753 29.3211 5.15753 29.6219C5.15753 29.8591 5.11735 30.0645 5.03699 30.238C4.96237 30.4058 4.86766 30.5446 4.75286 30.6546C4.63806 30.7587 4.52613 30.8397 4.41707 30.8975C4.64093 31.0075 4.83896 31.1868 5.01116 31.4355C5.1891 31.6843 5.27807 31.9851 5.27807 32.338C5.27807 32.6562 5.20632 32.9484 5.06282 33.2145C4.91932 33.4806 4.70407 33.6946 4.41707 33.8566C4.13581 34.0128 3.78854 34.0909 3.37526 34.0909H0.947237ZM1.59299 33.388H3.26333C3.63069 33.388 3.91482 33.2868 4.11572 33.0843C4.31662 32.8818 4.41707 32.6331 4.41707 32.338C4.41707 32.0314 4.31662 31.7798 4.11572 31.5831C3.91482 31.3806 3.63069 31.2794 3.26333 31.2794H1.59299V33.388ZM1.59299 30.5851H3.17723C3.54459 30.5851 3.82298 30.5013 4.0124 30.3335C4.20182 30.1599 4.29653 29.9256 4.29653 29.6306C4.29653 29.3355 4.20182 29.1099 4.0124 28.9537C3.82298 28.7975 3.54459 28.7194 3.17723 28.7194H1.59299V30.5851Z" fill="#222222"/>
</g>
<g clip-path="url(#clip0_524_2942)">
<path d="M64.4881 5.69557C63.913 4.22128 63.1128 3.0746 62.1001 2.24295C61.1124 1.41129 59.9872 0.831655 58.7369 0.491432C57.4992 0.163811 56.2239 0 54.8986 0C53.5859 0 52.2981 0.163811 51.0354 0.491432C49.7976 0.806453 48.6724 1.37349 47.6722 2.20514C46.672 3.0368 45.8843 4.19608 45.2842 5.67037C44.7091 7.14467 44.4215 9.03479 44.4215 11.3407C44.4215 13.6467 44.7091 15.5368 45.2842 17.0111C45.8843 18.4854 46.672 19.6321 47.6722 20.4637C48.6724 21.2954 49.7976 21.875 51.0354 22.2153C52.2981 22.5177 53.5859 22.6815 54.8986 22.6815C56.2239 22.6815 57.4992 22.5177 58.7369 22.1775C59.9872 21.8498 61.1124 21.2702 62.1001 20.4385C63.1128 19.6069 63.913 18.4476 64.4881 16.9733C65.0757 15.499 65.3758 13.6215 65.3758 11.3407C65.3758 9.04739 65.0757 7.16987 64.4881 5.69557ZM58.3618 16.0157C57.5742 16.9229 56.4239 17.3765 54.8986 17.3765C53.3983 17.3765 52.2481 16.9103 51.4729 15.9779C50.6853 15.0454 50.2977 13.4955 50.2977 11.3407C50.2977 9.1734 50.6853 7.6361 51.4729 6.69104C52.2481 5.75858 53.3983 5.29235 54.8986 5.29235C56.4239 5.29235 57.5742 5.74598 58.3618 6.66584C59.1495 7.5731 59.5371 9.1356 59.5371 11.3407C59.5371 13.5459 59.1495 15.0958 58.3618 16.0157Z" fill="#222222"/>
<path d="M40.8083 18.9139L37.7452 15.0454L37.4326 14.7052C38.5704 14.1633 39.458 13.3569 40.0957 12.2732C40.7333 11.1769 41.0459 9.74045 41.0459 7.97634C41.0459 6.02321 40.6958 4.49851 39.9706 3.38964C39.2705 2.26816 38.3078 1.48691 37.0951 1.02068C35.8948 0.541848 34.5445 0.315033 33.0442 0.315033H23.1547L22.5296 2.17996L23.1547 5.33016V22.3665H28.7184L29.0309 20.4638L28.7184 17.3514V15.7258H31.2814L35.6073 22.3665H42.5712V20.5016L40.8083 18.9139ZM34.307 10.2445C33.6694 10.6477 32.8192 10.8367 31.744 10.8367H28.7184L28.4058 5.29236H31.6189C32.3441 5.29236 32.9692 5.35537 33.5068 5.48137C34.0694 5.60738 34.4945 5.8594 34.8071 6.26262C35.1197 6.62805 35.2697 7.20769 35.2697 7.97634C35.2697 9.07261 34.9571 9.82866 34.307 10.2445Z" fill="#222222"/>
<path d="M17.441 3.38964C16.7284 2.26816 15.7782 1.48691 14.5655 1.02068C13.3652 0.541848 12.0149 0.315033 10.5146 0.315033H0.612625L0 2.17996L0.612625 5.33016V22.3665H6.18876L6.48882 20.4638L6.18876 17.3514V15.7258H9.57695C11.3148 15.7258 12.8526 15.4864 14.1904 15.0202C15.5532 14.5414 16.6159 13.7349 17.3785 12.6134C18.1412 11.4794 18.5163 9.92947 18.5163 7.97634C18.5163 6.02321 18.1537 4.49851 17.441 3.38964ZM11.7774 10.2445C11.1398 10.6477 10.2896 10.8367 9.21437 10.8367H6.18876L5.87619 5.29236H9.08935C9.8145 5.29236 10.4396 5.35537 10.9772 5.48137C11.5273 5.60738 11.9649 5.8594 12.2775 6.26262C12.5776 6.62805 12.7401 7.20769 12.7401 7.97634C12.7401 9.07261 12.415 9.82866 11.7774 10.2445Z" fill="#222222"/>
<path d="M67.6388 22.6814H66.9636V22.6689C67.1887 22.6814 67.4137 22.6814 67.6388 22.6814Z" fill="#222222"/>
<path d="M67.6388 0C67.4137 0 67.1887 0 66.9636 0.0124748V0H67.6388Z" fill="#222222"/>
<path d="M66.9636 0V0.0126008C67.1887 0 67.4137 0 67.6388 0H66.9636ZM66.9636 22.6689V22.6815H67.6388C67.4137 22.6815 67.1887 22.6815 66.9636 22.6689Z" fill="#222222"/>
<path d="M67.6388 0C67.4137 0 67.1887 0 66.9636 0.0126008V0H56.3865C57.7117 0 58.987 0.163811 60.2248 0.491432C61.475 0.831655 62.6002 1.41129 63.5879 2.24295C64.6006 3.0746 65.4008 4.22128 65.9759 5.69557C66.576 7.16987 66.8636 9.04739 66.8636 11.3407C66.8636 13.6215 66.576 15.499 65.9759 16.9733C65.4008 18.4476 64.6006 19.6069 63.5879 20.4385C62.6002 21.2702 61.475 21.8498 60.2248 22.1775C58.987 22.5177 57.7117 22.6815 56.3865 22.6815H66.9636V22.6689C67.1887 22.6815 67.4137 22.6815 67.6388 22.6815H118C120.761 22.6815 123 20.4429 123 17.6815V4.99999C123 2.23857 120.761 0 118 0H67.6388ZM87.4928 19.1785C86.4551 20.0227 84.9298 20.4511 82.9169 20.4511H72.7898V6.79185L72.2897 4.30948L72.7898 2.80998H81.1915C83.0544 2.80998 84.5422 3.16281 85.6674 3.85585C86.7801 4.5489 87.3428 5.68297 87.3428 7.24548C87.3428 8.02673 87.2177 8.73237 86.9552 9.36242C86.6926 9.99246 86.3051 10.4839 85.8175 10.8367C86.9302 11.2021 87.7554 11.7566 88.2805 12.5C88.8181 13.2561 89.0806 14.1381 89.0806 15.1714C89.0806 16.9733 88.5555 18.3216 87.4928 19.1785ZM96.5071 20.4511H92.0312V6.79185L91.7812 4.30948L92.0312 2.80998H96.5071V20.4511ZM116.224 16.0157C115.711 17.1749 115.023 18.0822 114.148 18.7374C113.273 19.3801 112.285 19.8337 111.185 20.0731C110.097 20.3251 108.972 20.4511 107.822 20.4511H100.458V6.81705L99.9578 4.33468L100.458 2.80998H107.822C109.01 2.80998 110.147 2.92339 111.235 3.16281C112.335 3.37702 113.311 3.79285 114.173 4.41029C115.048 5.01513 115.724 5.89719 116.224 7.04386C116.736 8.19054 116.986 9.67744 116.986 11.5046C116.986 13.3317 116.736 14.8312 116.224 16.0157Z" fill="#222222"/>
<path d="M112.323 11.5045C112.323 13.2687 111.935 14.5413 111.16 15.3226C110.385 16.0786 109.272 16.4693 107.822 16.4693H104.946V6.79184H107.822C109.247 6.79184 110.36 7.14466 111.135 7.83771C111.923 8.53075 112.323 9.74043 112.323 11.5045Z" fill="#222222"/>
<path d="M84.2046 14.9446C84.2046 15.1966 84.1546 15.436 84.0546 15.6628C83.9796 15.9022 83.7921 16.0913 83.492 16.2425C83.2044 16.3937 82.7669 16.4693 82.1792 16.4693H77.2407V13.3695H82.4293C83.0044 13.3695 83.442 13.5333 83.7421 13.8483C84.0546 14.1507 84.2046 14.5162 84.2046 14.9446Z" fill="#222222"/>
<path d="M82.7293 8.21573C82.7293 8.64416 82.6043 8.99699 82.3543 9.2616C82.1042 9.52622 81.7041 9.66483 81.1415 9.66483H77.2407V6.79184H80.8915C81.3916 6.79184 81.8167 6.89265 82.1792 7.09426C82.5418 7.29587 82.7293 7.6739 82.7293 8.21573Z" fill="#222222"/>
</g>
<defs>
<clipPath id="clip0_524_2942">
<rect width="123" height="22.6815" fill="white"/>
</clipPath>
</defs>
</svg>
