<svg width="123" height="36" viewBox="0 0 123 36" fill="none" xmlns="http://www.w3.org/2000/svg">
<g opacity="0.8">
<path d="M119.223 34.091C119.166 34.091 119.117 34.0736 119.077 34.0389C119.043 33.9984 119.025 33.9492 119.025 33.8914V29.7868C119.025 29.729 119.043 29.6798 119.077 29.6393C119.117 29.5988 119.166 29.5786 119.223 29.5786H119.619C119.677 29.5786 119.726 29.5988 119.766 29.6393C119.806 29.6798 119.826 29.729 119.826 29.7868V30.1686C119.941 29.9719 120.099 29.8244 120.3 29.7261C120.501 29.6277 120.745 29.5786 121.032 29.5786H121.367C121.425 29.5786 121.471 29.5988 121.505 29.6393C121.545 29.674 121.565 29.7203 121.565 29.7781V30.1339C121.565 30.1918 121.545 30.2381 121.505 30.2728C121.471 30.3075 121.425 30.3248 121.367 30.3248H120.851C120.541 30.3248 120.297 30.4174 120.119 30.6025C119.941 30.7819 119.852 31.0277 119.852 31.3401V33.8914C119.852 33.9492 119.832 33.9984 119.792 34.0389C119.752 34.0736 119.703 34.091 119.645 34.091H119.223Z" fill="white"/>
<path d="M115.998 34.1777C115.401 34.1777 114.927 33.9955 114.577 33.631C114.227 33.2608 114.035 32.7575 114 32.1211C113.994 32.0459 113.991 31.9504 113.991 31.8347C113.991 31.7132 113.994 31.6149 114 31.5397C114.023 31.129 114.118 30.7703 114.284 30.4637C114.451 30.1513 114.677 29.9112 114.964 29.7434C115.257 29.5756 115.599 29.4918 115.989 29.4918C116.425 29.4918 116.79 29.5843 117.082 29.7694C117.381 29.9546 117.608 30.2178 117.763 30.5591C117.918 30.9004 117.995 31.2996 117.995 31.7566V31.9042C117.995 31.9678 117.975 32.017 117.935 32.0517C117.9 32.0864 117.854 32.1037 117.797 32.1037H114.818C114.818 32.1095 114.818 32.1211 114.818 32.1385C114.818 32.1558 114.818 32.1703 114.818 32.1818C114.829 32.419 114.881 32.6418 114.973 32.85C115.065 33.0525 115.197 33.2174 115.369 33.3447C115.547 33.4719 115.754 33.5356 115.989 33.5356C116.196 33.5356 116.368 33.5037 116.506 33.4401C116.643 33.3765 116.755 33.3071 116.841 33.2318C116.927 33.1509 116.985 33.0872 117.014 33.0409C117.065 32.9715 117.105 32.931 117.134 32.9194C117.163 32.9021 117.209 32.8934 117.272 32.8934H117.694C117.745 32.8934 117.788 32.9108 117.823 32.9455C117.863 32.9744 117.88 33.0178 117.875 33.0756C117.869 33.1624 117.823 33.2694 117.737 33.3967C117.651 33.5182 117.527 33.6397 117.367 33.7612C117.212 33.8827 117.016 33.9839 116.781 34.0649C116.551 34.1401 116.29 34.1777 115.998 34.1777ZM114.818 31.505H117.177V31.479C117.177 31.2186 117.128 30.9872 117.031 30.7847C116.939 30.5823 116.804 30.4232 116.626 30.3075C116.448 30.186 116.236 30.1252 115.989 30.1252C115.742 30.1252 115.53 30.186 115.352 30.3075C115.18 30.4232 115.048 30.5823 114.956 30.7847C114.864 30.9872 114.818 31.2186 114.818 31.479V31.505Z" fill="white"/>
<path d="M110.904 36C110.513 36 110.192 35.948 109.939 35.8438C109.693 35.7397 109.497 35.6124 109.354 35.462C109.216 35.3174 109.116 35.1699 109.053 35.0194C108.995 34.8748 108.964 34.7591 108.958 34.6723C108.952 34.6145 108.969 34.5653 109.009 34.5248C109.055 34.4843 109.104 34.4641 109.156 34.4641H109.569C109.621 34.4641 109.664 34.4756 109.698 34.4988C109.733 34.5219 109.761 34.5711 109.784 34.6463C109.819 34.7331 109.87 34.8285 109.939 34.9327C110.008 35.0426 110.114 35.1351 110.258 35.2104C110.401 35.2913 110.602 35.3318 110.861 35.3318C111.13 35.3318 111.357 35.2942 111.541 35.219C111.725 35.1438 111.862 35.0166 111.954 34.8372C112.052 34.6579 112.1 34.4091 112.1 34.0909V33.5009C111.963 33.6802 111.782 33.8306 111.558 33.9521C111.334 34.0678 111.053 34.1256 110.714 34.1256C110.393 34.1256 110.117 34.0707 109.888 33.9608C109.658 33.8451 109.469 33.6918 109.319 33.5009C109.176 33.3042 109.067 33.0814 108.992 32.8327C108.923 32.5839 108.883 32.3236 108.872 32.0517C108.866 31.8897 108.866 31.7306 108.872 31.5744C108.883 31.3025 108.923 31.0422 108.992 30.7934C109.067 30.5447 109.176 30.3219 109.319 30.1252C109.469 29.9285 109.658 29.7752 109.888 29.6653C110.117 29.5496 110.393 29.4918 110.714 29.4918C111.059 29.4918 111.343 29.5554 111.567 29.6827C111.796 29.8099 111.983 29.969 112.126 30.1599V29.7868C112.126 29.729 112.144 29.6798 112.178 29.6393C112.218 29.5988 112.267 29.5785 112.324 29.5785H112.72C112.778 29.5785 112.827 29.5988 112.867 29.6393C112.907 29.6798 112.927 29.729 112.927 29.7868V33.9955C112.927 34.3831 112.861 34.7273 112.729 35.0281C112.603 35.329 112.39 35.5661 112.092 35.7397C111.799 35.9132 111.403 36 110.904 36ZM110.886 33.4314C111.173 33.4314 111.403 33.3649 111.575 33.2318C111.753 33.0988 111.882 32.931 111.963 32.7285C112.049 32.5261 112.095 32.3207 112.1 32.1124C112.106 32.0314 112.109 31.9331 112.109 31.8174C112.109 31.6959 112.106 31.5947 112.1 31.5137C112.095 31.3054 112.049 31.1 111.963 30.8975C111.882 30.6951 111.753 30.5273 111.575 30.3942C111.403 30.2612 111.173 30.1947 110.886 30.1947C110.599 30.1947 110.37 30.2612 110.198 30.3942C110.025 30.5215 109.902 30.6922 109.827 30.9062C109.753 31.1145 109.71 31.3401 109.698 31.5831C109.693 31.7335 109.693 31.8868 109.698 32.043C109.71 32.286 109.753 32.5145 109.827 32.7285C109.902 32.9368 110.025 33.1075 110.198 33.2405C110.37 33.3678 110.599 33.4314 110.886 33.4314Z" fill="white"/>
<path d="M105.766 36C105.376 36 105.054 35.948 104.802 35.8438C104.555 35.7397 104.36 35.6124 104.216 35.462C104.078 35.3174 103.978 35.1699 103.915 35.0194C103.857 34.8748 103.826 34.7591 103.82 34.6723C103.814 34.6145 103.832 34.5653 103.872 34.5248C103.918 34.4843 103.967 34.4641 104.018 34.4641H104.431C104.483 34.4641 104.526 34.4756 104.561 34.4988C104.595 34.5219 104.624 34.5711 104.647 34.6463C104.681 34.7331 104.733 34.8285 104.802 34.9327C104.871 35.0426 104.977 35.1351 105.12 35.2104C105.264 35.2913 105.465 35.3318 105.723 35.3318C105.993 35.3318 106.219 35.2942 106.403 35.219C106.587 35.1438 106.725 35.0166 106.816 34.8372C106.914 34.6579 106.963 34.4091 106.963 34.0909V33.5009C106.825 33.6802 106.644 33.8306 106.42 33.9521C106.196 34.0678 105.915 34.1256 105.577 34.1256C105.255 34.1256 104.98 34.0707 104.75 33.9608C104.52 33.8451 104.331 33.6918 104.182 33.5009C104.038 33.3042 103.929 33.0814 103.855 32.8327C103.786 32.5839 103.746 32.3236 103.734 32.0517C103.728 31.8897 103.728 31.7306 103.734 31.5744C103.746 31.3025 103.786 31.0422 103.855 30.7934C103.929 30.5447 104.038 30.3219 104.182 30.1252C104.331 29.9285 104.52 29.7752 104.75 29.6653C104.98 29.5496 105.255 29.4918 105.577 29.4918C105.921 29.4918 106.205 29.5554 106.429 29.6827C106.659 29.8099 106.845 29.969 106.989 30.1599V29.7868C106.989 29.729 107.006 29.6798 107.04 29.6393C107.08 29.5988 107.129 29.5785 107.187 29.5785H107.583C107.64 29.5785 107.689 29.5988 107.729 29.6393C107.769 29.6798 107.789 29.729 107.789 29.7868V33.9955C107.789 34.3831 107.723 34.7273 107.591 35.0281C107.465 35.329 107.253 35.5661 106.954 35.7397C106.661 35.9132 106.265 36 105.766 36ZM105.749 33.4314C106.036 33.4314 106.265 33.3649 106.438 33.2318C106.616 33.0988 106.745 32.931 106.825 32.7285C106.911 32.5261 106.957 32.3207 106.963 32.1124C106.969 32.0314 106.971 31.9331 106.971 31.8174C106.971 31.6959 106.969 31.5947 106.963 31.5137C106.957 31.3054 106.911 31.1 106.825 30.8975C106.745 30.6951 106.616 30.5273 106.438 30.3942C106.265 30.2612 106.036 30.1947 105.749 30.1947C105.462 30.1947 105.232 30.2612 105.06 30.3942C104.888 30.5215 104.764 30.6922 104.69 30.9062C104.615 31.1145 104.572 31.3401 104.561 31.5831C104.555 31.7335 104.555 31.8868 104.561 32.043C104.572 32.286 104.615 32.5145 104.69 32.7285C104.764 32.9368 104.888 33.1075 105.06 33.2405C105.232 33.3678 105.462 33.4314 105.749 33.4314Z" fill="white"/>
<path d="M102.045 34.0909C101.988 34.0909 101.939 34.0735 101.899 34.0388C101.865 33.9983 101.847 33.9492 101.847 33.8913V29.7781C101.847 29.7202 101.865 29.674 101.899 29.6392C101.939 29.5988 101.988 29.5785 102.045 29.5785H102.459C102.516 29.5785 102.562 29.5988 102.597 29.6392C102.637 29.674 102.657 29.7202 102.657 29.7781V33.8913C102.657 33.9492 102.637 33.9983 102.597 34.0388C102.562 34.0735 102.516 34.0909 102.459 34.0909H102.045ZM101.977 28.7368C101.919 28.7368 101.87 28.7194 101.83 28.6847C101.796 28.6442 101.779 28.595 101.779 28.5372V28.0686C101.779 28.0107 101.796 27.9616 101.83 27.9211C101.87 27.8806 101.919 27.8603 101.977 27.8603H102.519C102.576 27.8603 102.625 27.8806 102.665 27.9211C102.706 27.9616 102.726 28.0107 102.726 28.0686V28.5372C102.726 28.595 102.706 28.6442 102.665 28.6847C102.625 28.7194 102.576 28.7368 102.519 28.7368H101.977Z" fill="white"/>
<path d="M96.4055 34.0909C96.3424 34.0909 96.2936 34.0736 96.2592 34.0389C96.2247 33.9984 96.2075 33.9492 96.2075 33.8913V28.2248C96.2075 28.1612 96.2247 28.112 96.2592 28.0773C96.2936 28.0368 96.3424 28.0165 96.4055 28.0165H98.7647C99.1952 28.0165 99.5453 28.0889 99.8151 28.2335C100.091 28.3723 100.292 28.5632 100.418 28.8062C100.55 29.0492 100.616 29.3211 100.616 29.6219C100.616 29.8591 100.576 30.0645 100.495 30.238C100.421 30.4058 100.326 30.5446 100.211 30.6546C100.096 30.7587 99.9844 30.8397 99.8754 30.8975C100.099 31.0075 100.297 31.1868 100.469 31.4355C100.647 31.6843 100.736 31.9851 100.736 32.338C100.736 32.6562 100.665 32.9484 100.521 33.2145C100.378 33.4806 100.162 33.6946 99.8754 33.8566C99.5941 34.0128 99.2469 34.0909 98.8336 34.0909H96.4055ZM97.0513 33.388H98.7216C99.089 33.388 99.3731 33.2868 99.574 33.0843C99.7749 32.8818 99.8754 32.6331 99.8754 32.338C99.8754 32.0314 99.7749 31.7798 99.574 31.5831C99.3731 31.3806 99.089 31.2794 98.7216 31.2794H97.0513V33.388ZM97.0513 30.5851H98.6355C99.0029 30.5851 99.2813 30.5013 99.4707 30.3335C99.6601 30.1599 99.7548 29.9256 99.7548 29.6306C99.7548 29.3355 99.6601 29.1099 99.4707 28.9537C99.2813 28.7975 99.0029 28.7194 98.6355 28.7194H97.0513V30.5851Z" fill="white"/>
<path d="M90.9588 34.1777C90.3618 34.1777 89.8883 33.9955 89.5381 33.631C89.188 33.2608 88.9957 32.7575 88.9612 32.1211C88.9555 32.0459 88.9526 31.9504 88.9526 31.8347C88.9526 31.7132 88.9555 31.6149 88.9612 31.5397C88.9842 31.129 89.0789 30.7703 89.2454 30.4637C89.4118 30.1513 89.6386 29.9112 89.9256 29.7434C90.2183 29.5756 90.5598 29.4918 90.9502 29.4918C91.3864 29.4918 91.7509 29.5843 92.0436 29.7694C92.3421 29.9546 92.5688 30.2178 92.7238 30.5591C92.8788 30.9004 92.9563 31.2996 92.9563 31.7566V31.9042C92.9563 31.9678 92.9362 32.017 92.896 32.0517C92.8616 32.0864 92.8157 32.1037 92.7583 32.1037H89.7792C89.7792 32.1095 89.7792 32.1211 89.7792 32.1385C89.7792 32.1558 89.7792 32.1703 89.7792 32.1818C89.7907 32.419 89.8423 32.6418 89.9342 32.85C90.026 33.0525 90.158 33.2174 90.3302 33.3447C90.5082 33.4719 90.7148 33.5356 90.9502 33.5356C91.1568 33.5356 91.329 33.5037 91.4668 33.4401C91.6045 33.3765 91.7164 33.3071 91.8025 33.2318C91.8886 33.1509 91.946 33.0872 91.9747 33.0409C92.0264 32.9715 92.0666 32.931 92.0953 32.9194C92.124 32.9021 92.1699 32.8934 92.233 32.8934H92.6549C92.7066 32.8934 92.7496 32.9108 92.7841 32.9455C92.8243 32.9744 92.8415 33.0178 92.8357 33.0756C92.83 33.1624 92.7841 33.2694 92.698 33.3967C92.6119 33.5182 92.4885 33.6397 92.3278 33.7612C92.1728 33.8827 91.9776 33.9839 91.7423 34.0649C91.5127 34.1401 91.2515 34.1777 90.9588 34.1777ZM89.7792 31.505H92.1383V31.479C92.1383 31.2186 92.0895 30.9872 91.992 30.7847C91.9001 30.5823 91.7652 30.4232 91.5873 30.3075C91.4094 30.186 91.197 30.1252 90.9502 30.1252C90.7033 30.1252 90.491 30.186 90.313 30.3075C90.1408 30.4232 90.0088 30.5823 89.917 30.7847C89.8251 30.9872 89.7792 31.2186 89.7792 31.479V31.505Z" fill="white"/>
<path d="M87.2803 34.091C87.2229 34.091 87.1741 34.0737 87.1339 34.039C87.0995 33.9985 87.0823 33.9493 87.0823 33.8914V28.1295C87.0823 28.0716 87.0995 28.0253 87.1339 27.9906C87.1741 27.9501 87.2229 27.9299 87.2803 27.9299H87.685C87.7481 27.9299 87.7969 27.9501 87.8313 27.9906C87.8658 28.0253 87.883 28.0716 87.883 28.1295V33.8914C87.883 33.9493 87.8658 33.9985 87.8313 34.039C87.7969 34.0737 87.7481 34.091 87.685 34.091H87.2803Z" fill="white"/>
<path d="M85.1861 34.0909C85.1287 34.0909 85.0799 34.0735 85.0397 34.0388C85.0053 33.9983 84.9881 33.9492 84.9881 33.8913V29.7781C84.9881 29.7202 85.0053 29.674 85.0397 29.6392C85.0799 29.5988 85.1287 29.5785 85.1861 29.5785H85.5994C85.6568 29.5785 85.7027 29.5988 85.7371 29.6392C85.7773 29.674 85.7974 29.7202 85.7974 29.7781V33.8913C85.7974 33.9492 85.7773 33.9983 85.7371 34.0388C85.7027 34.0735 85.6568 34.0909 85.5994 34.0909H85.1861ZM85.1172 28.7368C85.0598 28.7368 85.011 28.7194 84.9708 28.6847C84.9364 28.6442 84.9192 28.595 84.9192 28.5372V28.0686C84.9192 28.0107 84.9364 27.9616 84.9708 27.9211C85.011 27.8806 85.0598 27.8603 85.1172 27.8603H85.6597C85.7171 27.8603 85.7658 27.8806 85.806 27.9211C85.8462 27.9616 85.8663 28.0107 85.8663 28.0686V28.5372C85.8663 28.595 85.8462 28.6442 85.806 28.6847C85.7658 28.7194 85.7171 28.7368 85.6597 28.7368H85.1172Z" fill="white"/>
<path d="M77.5342 34.0908C77.4768 34.0908 77.428 34.0735 77.3878 34.0388C77.3534 33.9983 77.3362 33.9491 77.3362 33.8913V29.778C77.3362 29.7202 77.3534 29.6739 77.3878 29.6392C77.428 29.5987 77.4768 29.5784 77.5342 29.5784H77.9217C77.9791 29.5784 78.025 29.5987 78.0594 29.6392C78.0996 29.6739 78.1197 29.7202 78.1197 29.778V30.0818C78.2517 29.9024 78.4182 29.7607 78.6191 29.6565C78.82 29.5466 79.0611 29.4917 79.3423 29.4917C79.9909 29.4859 80.4501 29.752 80.7199 30.29C80.8519 30.047 81.0442 29.8532 81.2968 29.7086C81.5493 29.564 81.8363 29.4917 82.1578 29.4917C82.4563 29.4917 82.726 29.5611 82.9671 29.6999C83.2139 29.8388 83.4062 30.0499 83.544 30.3334C83.6875 30.6111 83.7592 30.9611 83.7592 31.3834V33.8913C83.7592 33.9491 83.7392 33.9983 83.699 34.0388C83.6645 34.0735 83.6186 34.0908 83.5612 34.0908H83.1565C83.0991 34.0908 83.0503 34.0735 83.0102 34.0388C82.9757 33.9983 82.9585 33.9491 82.9585 33.8913V31.4615C82.9585 31.1375 82.9126 30.883 82.8207 30.6979C82.7289 30.5127 82.6055 30.3826 82.4505 30.3074C82.2955 30.2322 82.1262 30.1946 81.9425 30.1946C81.7933 30.1946 81.6412 30.2322 81.4862 30.3074C81.3312 30.3826 81.2021 30.5127 81.0988 30.6979C81.0012 30.883 80.9524 31.1375 80.9524 31.4615V33.8913C80.9524 33.9491 80.9323 33.9983 80.8921 34.0388C80.8577 34.0735 80.8117 34.0908 80.7543 34.0908H80.3497C80.2923 34.0908 80.2435 34.0735 80.2033 34.0388C80.1689 33.9983 80.1516 33.9491 80.1516 33.8913V31.4615C80.1516 31.1375 80.1029 30.883 80.0053 30.6979C79.9077 30.5127 79.7814 30.3826 79.6264 30.3074C79.4715 30.2322 79.3079 30.1946 79.1357 30.1946C78.9864 30.1946 78.8343 30.2322 78.6793 30.3074C78.5244 30.3826 78.3952 30.5127 78.2919 30.6979C78.1943 30.883 78.1455 31.1346 78.1455 31.4528V33.8913C78.1455 33.9491 78.1254 33.9983 78.0852 34.0388C78.0508 34.0735 78.0049 34.0908 77.9475 34.0908H77.5342Z" fill="white"/>
<path d="M74.0308 34.1778C73.5314 34.1778 73.1124 34.0997 72.7737 33.9435C72.435 33.7873 72.1739 33.5877 71.9902 33.3447C71.8122 33.096 71.7175 32.8357 71.7061 32.5638C71.7061 32.5175 71.7233 32.477 71.7577 32.4423C71.7979 32.4018 71.8438 32.3815 71.8955 32.3815H72.3346C72.4035 32.3815 72.4551 32.3989 72.4896 32.4336C72.524 32.4683 72.547 32.5088 72.5584 32.5551C72.5929 32.6939 72.6646 32.8328 72.7737 32.9716C72.8828 33.1047 73.0377 33.2175 73.2386 33.31C73.4453 33.3968 73.7093 33.4402 74.0308 33.4402C74.5244 33.4402 74.886 33.3534 75.1156 33.1799C75.351 33.0005 75.4686 32.7633 75.4686 32.4683C75.4686 32.2658 75.4055 32.1038 75.2792 31.9823C75.1587 31.8551 74.9721 31.7423 74.7196 31.6439C74.467 31.5456 74.1398 31.4385 73.738 31.3228C73.319 31.2014 72.9717 31.0683 72.6962 30.9237C72.4207 30.779 72.214 30.5997 72.0763 30.3857C71.9443 30.1716 71.8783 29.8997 71.8783 29.57C71.8783 29.2576 71.9615 28.9799 72.1279 28.7369C72.2944 28.4881 72.5355 28.2914 72.8512 28.1468C73.1669 28.0022 73.5457 27.9299 73.9877 27.9299C74.3436 27.9299 74.6535 27.979 74.9176 28.0774C75.1874 28.17 75.4112 28.2972 75.5892 28.4592C75.7671 28.6154 75.902 28.7861 75.9938 28.9712C76.0857 29.1505 76.1345 29.327 76.1402 29.5005C76.1402 29.541 76.1259 29.5815 76.0972 29.622C76.0685 29.6567 76.0225 29.6741 75.9594 29.6741H75.5031C75.4629 29.6741 75.4198 29.6625 75.3739 29.6394C75.3337 29.6162 75.3022 29.5728 75.2792 29.5092C75.2448 29.272 75.1127 29.0724 74.8831 28.9104C74.6535 28.7485 74.3551 28.6675 73.9877 28.6675C73.6146 28.6675 73.3104 28.7398 73.075 28.8844C72.8454 29.029 72.7306 29.2547 72.7306 29.5613C72.7306 29.758 72.7852 29.9228 72.8942 30.0559C73.0033 30.1832 73.1755 30.296 73.4108 30.3943C73.6462 30.4927 73.9533 30.5968 74.3321 30.7067C74.7913 30.834 75.1673 30.97 75.46 31.1146C75.7528 31.2534 75.968 31.4299 76.1058 31.6439C76.2493 31.8522 76.321 32.1212 76.321 32.4509C76.321 32.8154 76.2263 33.1278 76.0369 33.3881C75.8475 33.6427 75.5806 33.8394 75.2362 33.9782C74.8975 34.1113 74.4957 34.1778 74.0308 34.1778Z" fill="white"/>
<path d="M67.6659 34.7418C67.6199 34.7418 67.5826 34.7245 67.5539 34.6898C67.531 34.6551 67.5223 34.6117 67.5281 34.5596L67.7261 33.3187C67.7376 33.2493 67.7606 33.1914 67.795 33.1451C67.8352 33.0931 67.8926 33.067 67.9672 33.067H68.5441C68.5842 33.067 68.6158 33.0815 68.6388 33.1104C68.6675 33.1394 68.6818 33.1741 68.6818 33.2146C68.6818 33.2608 68.6732 33.3071 68.656 33.3534L68.1997 34.5423C68.1767 34.6001 68.1451 34.6464 68.105 34.6811C68.0705 34.7216 68.0189 34.7418 67.95 34.7418H67.6659Z" fill="white"/>
<path d="M64.4232 36C64.0329 36 63.7115 35.948 63.4589 35.8438C63.2121 35.7397 63.0169 35.6124 62.8734 35.462C62.7357 35.3174 62.6352 35.1699 62.5721 35.0194C62.5147 34.8748 62.4831 34.7591 62.4774 34.6723C62.4716 34.6145 62.4889 34.5653 62.529 34.5248C62.575 34.4843 62.6237 34.4641 62.6754 34.4641H63.0887C63.1403 34.4641 63.1834 34.4756 63.2178 34.4988C63.2523 34.5219 63.281 34.5711 63.3039 34.6463C63.3384 34.7331 63.39 34.8285 63.4589 34.9327C63.5278 35.0426 63.634 35.1351 63.7775 35.2104C63.921 35.2913 64.1219 35.3318 64.3802 35.3318C64.65 35.3318 64.8767 35.2942 65.0604 35.219C65.2441 35.1438 65.3818 35.0166 65.4736 34.8372C65.5712 34.6579 65.62 34.4091 65.62 34.0909V33.5009C65.4823 33.6802 65.3015 33.8306 65.0776 33.9521C64.8537 34.0678 64.5725 34.1256 64.2338 34.1256C63.9124 34.1256 63.6368 34.0707 63.4072 33.9608C63.1776 33.8451 62.9882 33.6918 62.839 33.5009C62.6955 33.3042 62.5864 33.0814 62.5118 32.8327C62.4429 32.5839 62.4027 32.3236 62.3913 32.0517C62.3855 31.8897 62.3855 31.7306 62.3913 31.5744C62.4027 31.3025 62.4429 31.0422 62.5118 30.7934C62.5864 30.5447 62.6955 30.3219 62.839 30.1252C62.9882 29.9285 63.1776 29.7752 63.4072 29.6653C63.6368 29.5496 63.9124 29.4918 64.2338 29.4918C64.5782 29.4918 64.8623 29.5554 65.0862 29.6827C65.3158 29.8099 65.5023 29.969 65.6458 30.1599V29.7868C65.6458 29.729 65.6631 29.6798 65.6975 29.6393C65.7377 29.5988 65.7865 29.5785 65.8439 29.5785H66.2399C66.2973 29.5785 66.3461 29.5988 66.3863 29.6393C66.4265 29.6798 66.4466 29.729 66.4466 29.7868V33.9955C66.4466 34.3831 66.3806 34.7273 66.2486 35.0281C66.1223 35.329 65.9099 35.5661 65.6114 35.7397C65.3187 35.9132 64.9226 36 64.4232 36ZM64.406 33.4314C64.693 33.4314 64.9226 33.3649 65.0948 33.2318C65.2728 33.0988 65.4019 32.931 65.4823 32.7285C65.5684 32.5261 65.6143 32.3207 65.62 32.1124C65.6258 32.0314 65.6286 31.9331 65.6286 31.8174C65.6286 31.6959 65.6258 31.5947 65.62 31.5137C65.6143 31.3054 65.5684 31.1 65.4823 30.8975C65.4019 30.6951 65.2728 30.5273 65.0948 30.3942C64.9226 30.2612 64.693 30.1947 64.406 30.1947C64.119 30.1947 63.8894 30.2612 63.7172 30.3942C63.545 30.5215 63.4216 30.6922 63.347 30.9062C63.2724 31.1145 63.2293 31.3401 63.2178 31.5831C63.2121 31.7335 63.2121 31.8868 63.2178 32.043C63.2293 32.286 63.2724 32.5145 63.347 32.7285C63.4216 32.9368 63.545 33.1075 63.7172 33.2405C63.8894 33.3678 64.119 33.4314 64.406 33.4314Z" fill="white"/>
<path d="M60.7017 34.0909C60.6443 34.0909 60.5955 34.0735 60.5554 34.0388C60.5209 33.9983 60.5037 33.9492 60.5037 33.8913V29.7781C60.5037 29.7202 60.5209 29.674 60.5554 29.6392C60.5955 29.5988 60.6443 29.5785 60.7017 29.5785H61.115C61.1724 29.5785 61.2183 29.5988 61.2528 29.6392C61.2929 29.674 61.313 29.7202 61.313 29.7781V33.8913C61.313 33.9492 61.2929 33.9983 61.2528 34.0388C61.2183 34.0735 61.1724 34.0909 61.115 34.0909H60.7017ZM60.6328 28.7368C60.5754 28.7368 60.5267 28.7194 60.4865 28.6847C60.452 28.6442 60.4348 28.595 60.4348 28.5372V28.0686C60.4348 28.0107 60.452 27.9616 60.4865 27.9211C60.5267 27.8806 60.5754 27.8603 60.6328 27.8603H61.1753C61.2327 27.8603 61.2815 27.8806 61.3216 27.9211C61.3618 27.9616 61.3819 28.0107 61.3819 28.0686V28.5372C61.3819 28.595 61.3618 28.6442 61.3216 28.6847C61.2815 28.7194 61.2327 28.7368 61.1753 28.7368H60.6328Z" fill="white"/>
<path d="M55.0623 34.0909C54.9991 34.0909 54.9504 34.0736 54.9159 34.0389C54.8815 33.9984 54.8643 33.9492 54.8643 33.8913V28.2248C54.8643 28.1612 54.8815 28.112 54.9159 28.0773C54.9504 28.0368 54.9991 28.0165 55.0623 28.0165H57.4214C57.8519 28.0165 58.2021 28.0889 58.4718 28.2335C58.7474 28.3723 58.9483 28.5632 59.0745 28.8062C59.2066 29.0492 59.2726 29.3211 59.2726 29.6219C59.2726 29.8591 59.2324 30.0645 59.152 30.238C59.0774 30.4058 58.9827 30.5446 58.8679 30.6546C58.7531 30.7587 58.6412 30.8397 58.5321 30.8975C58.756 31.0075 58.954 31.1868 59.1262 31.4355C59.3041 31.6843 59.3931 31.9851 59.3931 32.338C59.3931 32.6562 59.3214 32.9484 59.1779 33.2145C59.0344 33.4806 58.8191 33.6946 58.5321 33.8566C58.2509 34.0128 57.9036 34.0909 57.4903 34.0909H55.0623ZM55.708 33.388H57.3784C57.7457 33.388 58.0299 33.2868 58.2308 33.0843C58.4317 32.8818 58.5321 32.6331 58.5321 32.338C58.5321 32.0314 58.4317 31.7798 58.2308 31.5831C58.0299 31.3806 57.7457 31.2794 57.3784 31.2794H55.708V33.388ZM55.708 30.5851H57.2923C57.6596 30.5851 57.938 30.5013 58.1274 30.3335C58.3169 30.1599 58.4116 29.9256 58.4116 29.6306C58.4116 29.3355 58.3169 29.1099 58.1274 28.9537C57.938 28.7975 57.6596 28.7194 57.2923 28.7194H55.708V30.5851Z" fill="white"/>
<path d="M47.6192 34.0909C47.5618 34.0909 47.513 34.0736 47.4728 34.0389C47.4384 33.9984 47.4211 33.9492 47.4211 33.8913V29.7781C47.4211 29.7203 47.4384 29.674 47.4728 29.6393C47.513 29.5988 47.5618 29.5785 47.6192 29.5785H48.0238C48.0812 29.5785 48.1272 29.5988 48.1616 29.6393C48.2018 29.674 48.2219 29.7203 48.2219 29.7781V30.1599C48.3711 29.9632 48.5577 29.8042 48.7815 29.6827C49.0111 29.5554 49.3039 29.4918 49.6597 29.4918C50.0328 29.4918 50.3485 29.5756 50.6068 29.7434C50.8709 29.9054 51.0689 30.1339 51.2009 30.429C51.3387 30.7182 51.4076 31.0566 51.4076 31.4442V33.8913C51.4076 33.9492 51.3875 33.9984 51.3473 34.0389C51.3129 34.0736 51.2669 34.0909 51.2095 34.0909H50.779C50.7216 34.0909 50.6729 34.0736 50.6327 34.0389C50.5982 33.9984 50.581 33.9492 50.581 33.8913V31.4876C50.581 31.0827 50.4834 30.7674 50.2883 30.5418C50.0931 30.3104 49.8061 30.1947 49.4273 30.1947C49.0714 30.1947 48.7844 30.3104 48.5663 30.5418C48.3539 30.7674 48.2477 31.0827 48.2477 31.4876V33.8913C48.2477 33.9492 48.2276 33.9984 48.1874 34.0389C48.153 34.0736 48.1071 34.0909 48.0497 34.0909H47.6192Z" fill="white"/>
<path d="M45.533 34.0909C45.4756 34.0909 45.4268 34.0735 45.3867 34.0388C45.3522 33.9983 45.335 33.9492 45.335 33.8913V29.7781C45.335 29.7202 45.3522 29.674 45.3867 29.6392C45.4268 29.5988 45.4756 29.5785 45.533 29.5785H45.9463C46.0037 29.5785 46.0496 29.5988 46.0841 29.6392C46.1242 29.674 46.1443 29.7202 46.1443 29.7781V33.8913C46.1443 33.9492 46.1242 33.9983 46.0841 34.0388C46.0496 34.0735 46.0037 34.0909 45.9463 34.0909H45.533ZM45.4641 28.7368C45.4067 28.7368 45.358 28.7194 45.3178 28.6847C45.2833 28.6442 45.2661 28.595 45.2661 28.5372V28.0686C45.2661 28.0107 45.2833 27.9616 45.3178 27.9211C45.358 27.8806 45.4067 27.8603 45.4641 27.8603H46.0066C46.064 27.8603 46.1128 27.8806 46.1529 27.9211C46.1931 27.9616 46.2132 28.0107 46.2132 28.0686V28.5372C46.2132 28.595 46.1931 28.6442 46.1529 28.6847C46.1128 28.7194 46.064 28.7368 46.0066 28.7368H45.4641Z" fill="white"/>
<path d="M39.5679 34.0909C39.4932 34.0909 39.433 34.0707 39.387 34.0302C39.3469 33.9897 39.3182 33.9318 39.3009 33.8566L38.1903 28.2855C38.1845 28.2624 38.1816 28.2422 38.1816 28.2248C38.1816 28.2074 38.1816 28.1959 38.1816 28.1901C38.1816 28.1438 38.1989 28.1033 38.2333 28.0686C38.2677 28.0339 38.3079 28.0165 38.3538 28.0165H38.8016C38.9221 28.0165 38.991 28.0657 39.0082 28.1641L39.8864 32.6417L40.8163 29.5698C40.8335 29.5178 40.8622 29.4715 40.9024 29.431C40.9483 29.3847 41.0115 29.3616 41.0918 29.3616H41.4104C41.4965 29.3616 41.5596 29.3847 41.5998 29.431C41.64 29.4715 41.6658 29.5178 41.6773 29.5698L42.6158 32.6417L43.4854 28.1641C43.5026 28.0657 43.5744 28.0165 43.7007 28.0165H44.1484C44.1943 28.0165 44.2345 28.0339 44.2689 28.0686C44.3034 28.1033 44.3206 28.1438 44.3206 28.1901C44.3206 28.1959 44.3177 28.2074 44.312 28.2248C44.312 28.2422 44.312 28.2624 44.312 28.2855L43.2013 33.8566C43.1841 33.9318 43.1525 33.9897 43.1066 34.0302C43.0664 34.0707 43.009 34.0909 42.9344 34.0909H42.5986C42.5182 34.0909 42.4551 34.0707 42.4092 34.0302C42.3632 33.9897 42.3317 33.9376 42.3144 33.874L41.2468 30.5678L40.1878 33.874C40.1648 33.9376 40.1304 33.9897 40.0845 34.0302C40.0443 34.0707 39.984 34.0909 39.9036 34.0909H39.5679Z" fill="white"/>
<path d="M34.2596 34.7418C34.2137 34.7418 34.1764 34.7245 34.1477 34.6898C34.1247 34.6551 34.1161 34.6117 34.1218 34.5596L34.3199 33.3187C34.3313 33.2493 34.3543 33.1914 34.3887 33.1451C34.4289 33.0931 34.4863 33.067 34.5609 33.067H35.1378C35.178 33.067 35.2096 33.0815 35.2325 33.1104C35.2612 33.1394 35.2756 33.1741 35.2756 33.2146C35.2756 33.2608 35.267 33.3071 35.2497 33.3534L34.7934 34.5423C34.7705 34.6001 34.7389 34.6464 34.6987 34.6811C34.6643 34.7216 34.6126 34.7418 34.5437 34.7418H34.2596Z" fill="white"/>
<path d="M29.2796 34.091C29.2222 34.091 29.1734 34.0737 29.1332 34.039C29.0988 33.9985 29.0815 33.9493 29.0815 33.8914V28.1295C29.0815 28.0716 29.0988 28.0253 29.1332 27.9906C29.1734 27.9501 29.2222 27.9299 29.2796 27.9299H29.7101C29.7732 27.9299 29.822 27.9501 29.8564 27.9906C29.8909 28.0253 29.9081 28.0716 29.9081 28.1295V30.1514C30.0631 29.9547 30.2525 29.7956 30.4764 29.6741C30.7002 29.5526 30.9844 29.4919 31.3288 29.4919C31.7019 29.4919 32.0176 29.5757 32.2759 29.7435C32.5399 29.9055 32.7379 30.134 32.8699 30.429C33.0077 30.7183 33.0766 31.0567 33.0766 31.4443V33.8914C33.0766 33.9493 33.0594 33.9985 33.0249 34.039C32.9905 34.0737 32.9417 34.091 32.8786 34.091H32.4481C32.3907 34.091 32.3419 34.0737 32.3017 34.039C32.2672 33.9985 32.25 33.9493 32.25 33.8914V31.4877C32.25 31.0828 32.1524 30.7675 31.9573 30.5419C31.7621 30.3104 31.4751 30.1947 31.0963 30.1947C30.7404 30.1947 30.4534 30.3104 30.2353 30.5419C30.0172 30.7675 29.9081 31.0828 29.9081 31.4877V33.8914C29.9081 33.9493 29.8909 33.9985 29.8564 34.039C29.822 34.0737 29.7732 34.091 29.7101 34.091H29.2796Z" fill="white"/>
<path d="M25.7711 36C25.3808 36 25.0594 35.948 24.8068 35.8438C24.56 35.7397 24.3648 35.6124 24.2213 35.462C24.0836 35.3174 23.9831 35.1699 23.92 35.0194C23.8626 34.8748 23.831 34.7591 23.8253 34.6723C23.8195 34.6145 23.8367 34.5653 23.8769 34.5248C23.9228 34.4843 23.9716 34.4641 24.0233 34.4641H24.4366C24.4882 34.4641 24.5313 34.4756 24.5657 34.4988C24.6002 34.5219 24.6289 34.5711 24.6518 34.6463C24.6863 34.7331 24.7379 34.8285 24.8068 34.9327C24.8757 35.0426 24.9819 35.1351 25.1254 35.2104C25.2689 35.2913 25.4698 35.3318 25.7281 35.3318C25.9979 35.3318 26.2246 35.2942 26.4083 35.219C26.5919 35.1438 26.7297 35.0166 26.8215 34.8372C26.9191 34.6579 26.9679 34.4091 26.9679 34.0909V33.5009C26.8302 33.6802 26.6493 33.8306 26.4255 33.9521C26.2016 34.0678 25.9204 34.1256 25.5817 34.1256C25.2603 34.1256 24.9847 34.0707 24.7551 33.9608C24.5255 33.8451 24.3361 33.6918 24.1869 33.5009C24.0434 33.3042 23.9343 33.0814 23.8597 32.8327C23.7908 32.5839 23.7506 32.3236 23.7392 32.0517C23.7334 31.8897 23.7334 31.7306 23.7392 31.5744C23.7506 31.3025 23.7908 31.0422 23.8597 30.7934C23.9343 30.5447 24.0434 30.3219 24.1869 30.1252C24.3361 29.9285 24.5255 29.7752 24.7551 29.6653C24.9847 29.5496 25.2603 29.4918 25.5817 29.4918C25.9261 29.4918 26.2102 29.5554 26.4341 29.6827C26.6637 29.8099 26.8502 29.969 26.9937 30.1599V29.7868C26.9937 29.729 27.011 29.6798 27.0454 29.6393C27.0856 29.5988 27.1344 29.5785 27.1918 29.5785H27.5878C27.6452 29.5785 27.694 29.5988 27.7342 29.6393C27.7744 29.6798 27.7945 29.729 27.7945 29.7868V33.9955C27.7945 34.3831 27.7285 34.7273 27.5964 35.0281C27.4702 35.329 27.2578 35.5661 26.9593 35.7397C26.6666 35.9132 26.2705 36 25.7711 36ZM25.7539 33.4314C26.0409 33.4314 26.2705 33.3649 26.4427 33.2318C26.6206 33.0988 26.7498 32.931 26.8302 32.7285C26.9163 32.5261 26.9622 32.3207 26.9679 32.1124C26.9737 32.0314 26.9765 31.9331 26.9765 31.8174C26.9765 31.6959 26.9737 31.5947 26.9679 31.5137C26.9622 31.3054 26.9163 31.1 26.8302 30.8975C26.7498 30.6951 26.6206 30.5273 26.4427 30.3942C26.2705 30.2612 26.0409 30.1947 25.7539 30.1947C25.4669 30.1947 25.2373 30.2612 25.0651 30.3942C24.8929 30.5215 24.7695 30.6922 24.6949 30.9062C24.6203 31.1145 24.5772 31.3401 24.5657 31.5831C24.56 31.7335 24.56 31.8868 24.5657 32.043C24.5772 32.286 24.6203 32.5145 24.6949 32.7285C24.7695 32.9368 24.8929 33.1075 25.0651 33.2405C25.2373 33.3678 25.4669 33.4314 25.7539 33.4314Z" fill="white"/>
<path d="M22.0489 34.0909C21.9915 34.0909 21.9427 34.0735 21.9025 34.0388C21.8681 33.9983 21.8509 33.9492 21.8509 33.8913V29.7781C21.8509 29.7202 21.8681 29.674 21.9025 29.6392C21.9427 29.5988 21.9915 29.5785 22.0489 29.5785H22.4622C22.5196 29.5785 22.5655 29.5988 22.5999 29.6392C22.6401 29.674 22.6602 29.7202 22.6602 29.7781V33.8913C22.6602 33.9492 22.6401 33.9983 22.5999 34.0388C22.5655 34.0735 22.5196 34.0909 22.4622 34.0909H22.0489ZM21.98 28.7368C21.9226 28.7368 21.8738 28.7194 21.8336 28.6847C21.7992 28.6442 21.782 28.595 21.782 28.5372V28.0686C21.782 28.0107 21.7992 27.9616 21.8336 27.9211C21.8738 27.8806 21.9226 27.8603 21.98 27.8603H22.5224C22.5798 27.8603 22.6286 27.8806 22.6688 27.9211C22.709 27.9616 22.7291 28.0107 22.7291 28.0686V28.5372C22.7291 28.595 22.709 28.6442 22.6688 28.6847C22.6286 28.7194 22.5798 28.7368 22.5224 28.7368H21.98Z" fill="white"/>
<path d="M16.0139 34.0909C15.9508 34.0909 15.902 34.0736 15.8676 34.0389C15.8331 33.9984 15.8159 33.9492 15.8159 33.8913V28.2248C15.8159 28.1612 15.8331 28.112 15.8676 28.0773C15.902 28.0368 15.9508 28.0165 16.0139 28.0165H16.4531C16.5162 28.0165 16.565 28.0368 16.5994 28.0773C16.6396 28.112 16.6597 28.1612 16.6597 28.2248V30.6198H19.6215V28.2248C19.6215 28.1612 19.6388 28.112 19.6732 28.0773C19.7134 28.0368 19.7622 28.0165 19.8196 28.0165H20.2587C20.3218 28.0165 20.3706 28.0368 20.405 28.0773C20.4452 28.112 20.4653 28.1612 20.4653 28.2248V33.8913C20.4653 33.9492 20.4452 33.9984 20.405 34.0389C20.3706 34.0736 20.3218 34.0909 20.2587 34.0909H19.8196C19.7622 34.0909 19.7134 34.0736 19.6732 34.0389C19.6388 33.9984 19.6215 33.9492 19.6215 33.8913V31.4008H16.6597V33.8913C16.6597 33.9492 16.6396 33.9984 16.5994 34.0389C16.565 34.0736 16.5162 34.0909 16.4531 34.0909H16.0139Z" fill="white"/>
<path d="M10.1094 34.1778C9.79369 34.1778 9.52104 34.1228 9.29144 34.0129C9.06184 33.8972 8.87242 33.7439 8.72318 33.553C8.57968 33.3563 8.47062 33.1336 8.396 32.8848C8.32712 32.6361 8.28694 32.3728 8.27546 32.0952C8.26972 32.0026 8.26685 31.9158 8.26685 31.8348C8.26685 31.7538 8.26972 31.6671 8.27546 31.5745C8.28694 31.3026 8.32712 31.0423 8.396 30.7935C8.47062 30.5447 8.57968 30.322 8.72318 30.1253C8.87242 29.9286 9.06184 29.7753 9.29144 29.6654C9.52104 29.5497 9.79369 29.4919 10.1094 29.4919C10.448 29.4919 10.7293 29.5526 10.9532 29.6741C11.177 29.7956 11.3607 29.946 11.5042 30.1253V28.1295C11.5042 28.0716 11.5214 28.0253 11.5559 27.9906C11.596 27.9501 11.6448 27.9299 11.7022 27.9299H12.1155C12.1729 27.9299 12.2188 27.9501 12.2533 27.9906C12.2935 28.0253 12.3135 28.0716 12.3135 28.1295V33.8914C12.3135 33.9493 12.2935 33.9985 12.2533 34.039C12.2188 34.0737 12.1729 34.091 12.1155 34.091H11.7281C11.6649 34.091 11.6161 34.0737 11.5817 34.039C11.5473 33.9985 11.53 33.9493 11.53 33.8914V33.527C11.3865 33.7121 11.2 33.8683 10.9704 33.9956C10.7408 34.1171 10.4538 34.1778 10.1094 34.1778ZM10.2902 33.4749C10.5772 33.4749 10.8068 33.4084 10.979 33.2753C11.1512 33.1423 11.2803 32.9745 11.3664 32.772C11.4525 32.5638 11.4985 32.3526 11.5042 32.1385C11.5099 32.046 11.5128 31.9361 11.5128 31.8088C11.5128 31.6757 11.5099 31.5629 11.5042 31.4704C11.4985 31.2679 11.4497 31.0683 11.3578 30.8716C11.2717 30.6749 11.1397 30.5129 10.9618 30.3857C10.7896 30.2584 10.5657 30.1947 10.2902 30.1947C9.99746 30.1947 9.76499 30.2613 9.59279 30.3943C9.42059 30.5216 9.29718 30.6923 9.22256 30.9063C9.14794 31.1146 9.10489 31.3402 9.09341 31.5832C9.08767 31.7509 9.08767 31.9187 9.09341 32.0865C9.10489 32.3295 9.14794 32.558 9.22256 32.772C9.29718 32.9803 9.42059 33.1509 9.59279 33.284C9.76499 33.4113 9.99746 33.4749 10.2902 33.4749Z" fill="white"/>
<path d="M6.58698 34.0909C6.52958 34.0909 6.48079 34.0735 6.44061 34.0388C6.40617 33.9983 6.38895 33.9492 6.38895 33.8913V29.7781C6.38895 29.7202 6.40617 29.674 6.44061 29.6392C6.48079 29.5988 6.52958 29.5785 6.58698 29.5785H7.00026C7.05766 29.5785 7.10358 29.5988 7.13802 29.6392C7.1782 29.674 7.19829 29.7202 7.19829 29.7781V33.8913C7.19829 33.9492 7.1782 33.9983 7.13802 34.0388C7.10358 34.0735 7.05766 34.0909 7.00026 34.0909H6.58698ZM6.5181 28.7368C6.4607 28.7368 6.41191 28.7194 6.37173 28.6847C6.33729 28.6442 6.32007 28.595 6.32007 28.5372V28.0686C6.32007 28.0107 6.33729 27.9616 6.37173 27.9211C6.41191 27.8806 6.4607 27.8603 6.5181 27.8603H7.06053C7.11793 27.8603 7.16672 27.8806 7.2069 27.9211C7.24708 27.9616 7.26717 28.0107 7.26717 28.0686V28.5372C7.26717 28.595 7.24708 28.6442 7.2069 28.6847C7.16672 28.7194 7.11793 28.7368 7.06053 28.7368H6.5181Z" fill="white"/>
<path d="M0.947298 34.0909C0.884158 34.0909 0.835368 34.0736 0.800928 34.0389C0.766488 33.9984 0.749268 33.9492 0.749268 33.8913V28.2248C0.749268 28.1612 0.766488 28.112 0.800928 28.0773C0.835368 28.0368 0.884158 28.0165 0.947298 28.0165H3.30644C3.73694 28.0165 4.08708 28.0889 4.35686 28.2335C4.63238 28.3723 4.83328 28.5632 4.95956 28.8062C5.09158 29.0492 5.15759 29.3211 5.15759 29.6219C5.15759 29.8591 5.11741 30.0645 5.03705 30.238C4.96243 30.4058 4.86772 30.5446 4.75292 30.6546C4.63812 30.7587 4.52619 30.8397 4.41713 30.8975C4.64099 31.0075 4.83902 31.1868 5.01122 31.4355C5.18916 31.6843 5.27813 31.9851 5.27813 32.338C5.27813 32.6562 5.20638 32.9484 5.06288 33.2145C4.91938 33.4806 4.70413 33.6946 4.41713 33.8566C4.13587 34.0128 3.7886 34.0909 3.37532 34.0909H0.947298ZM1.59305 33.388H3.26339C3.63075 33.388 3.91488 33.2868 4.11578 33.0843C4.31668 32.8818 4.41713 32.6331 4.41713 32.338C4.41713 32.0314 4.31668 31.7798 4.11578 31.5831C3.91488 31.3806 3.63075 31.2794 3.26339 31.2794H1.59305V33.388ZM1.59305 30.5851H3.17729C3.54465 30.5851 3.82304 30.5013 4.01246 30.3335C4.20188 30.1599 4.29659 29.9256 4.29659 29.6306C4.29659 29.3355 4.20188 29.1099 4.01246 28.9537C3.82304 28.7975 3.54465 28.7194 3.17729 28.7194H1.59305V30.5851Z" fill="white"/>
</g>
<g clip-path="url(#clip0_305_3306)">
<path d="M64.4882 5.69557C63.9131 4.22128 63.1129 3.0746 62.1002 2.24295C61.1125 1.41129 59.9873 0.831655 58.737 0.491432C57.4993 0.163811 56.224 0 54.8988 0C53.586 0 52.2982 0.163811 51.0355 0.491432C49.7977 0.806453 48.6725 1.37349 47.6723 2.20514C46.6721 3.0368 45.8844 4.19608 45.2843 5.67037C44.7092 7.14467 44.4216 9.03479 44.4216 11.3407C44.4216 13.6467 44.7092 15.5368 45.2843 17.0111C45.8844 18.4854 46.6721 19.6321 47.6723 20.4637C48.6725 21.2954 49.7977 21.875 51.0355 22.2153C52.2982 22.5177 53.586 22.6815 54.8988 22.6815C56.224 22.6815 57.4993 22.5177 58.737 22.1775C59.9873 21.8498 61.1125 21.2702 62.1002 20.4385C63.1129 19.6069 63.9131 18.4476 64.4882 16.9733C65.0758 15.499 65.3759 13.6215 65.3759 11.3407C65.3759 9.04739 65.0758 7.16987 64.4882 5.69557ZM58.362 16.0157C57.5743 16.9229 56.4241 17.3765 54.8988 17.3765C53.3985 17.3765 52.2482 16.9103 51.4731 15.9779C50.6854 15.0454 50.2978 13.4955 50.2978 11.3407C50.2978 9.1734 50.6854 7.6361 51.4731 6.69104C52.2482 5.75858 53.3985 5.29235 54.8988 5.29235C56.4241 5.29235 57.5743 5.74598 58.362 6.66584C59.1496 7.5731 59.5372 9.1356 59.5372 11.3407C59.5372 13.5459 59.1496 15.0958 58.362 16.0157Z" fill="white"/>
<path d="M40.8083 18.9139L37.7451 15.0454L37.4326 14.7052C38.5703 14.1633 39.458 13.3569 40.0956 12.2732C40.7332 11.1769 41.0458 9.74045 41.0458 7.97634C41.0458 6.02321 40.6957 4.49851 39.9706 3.38964C39.2704 2.26816 38.3077 1.48691 37.095 1.02068C35.8948 0.541848 34.5445 0.315033 33.0442 0.315033H23.1547L22.5295 2.17996L23.1547 5.33016V22.3665H28.7183L29.0309 20.4638L28.7183 17.3514V15.7258H31.2813L35.6072 22.3665H42.5711V20.5016L40.8083 18.9139ZM34.3069 10.2445C33.6693 10.6477 32.8191 10.8367 31.7439 10.8367H28.7183L28.4057 5.29236H31.6189C32.344 5.29236 32.9692 5.35537 33.5068 5.48137C34.0694 5.60738 34.4945 5.8594 34.807 6.26262C35.1196 6.62805 35.2696 7.20769 35.2696 7.97634C35.2696 9.07261 34.9571 9.82866 34.3069 10.2445Z" fill="white"/>
<path d="M17.441 3.38964C16.7284 2.26816 15.7782 1.48691 14.5655 1.02068C13.3652 0.541848 12.0149 0.315033 10.5146 0.315033H0.612625L0 2.17996L0.612625 5.33016V22.3665H6.18876L6.48882 20.4638L6.18876 17.3514V15.7258H9.57695C11.3148 15.7258 12.8526 15.4864 14.1904 15.0202C15.5532 14.5414 16.6159 13.7349 17.3785 12.6134C18.1412 11.4794 18.5163 9.92947 18.5163 7.97634C18.5163 6.02321 18.1537 4.49851 17.441 3.38964ZM11.7774 10.2445C11.1398 10.6477 10.2896 10.8367 9.21437 10.8367H6.18876L5.87619 5.29236H9.08935C9.8145 5.29236 10.4396 5.35537 10.9772 5.48137C11.5273 5.60738 11.9649 5.8594 12.2775 6.26262C12.5776 6.62805 12.7401 7.20769 12.7401 7.97634C12.7401 9.07261 12.415 9.82866 11.7774 10.2445Z" fill="white"/>
<path d="M67.639 22.6814H66.9639V22.6689C67.1889 22.6814 67.414 22.6814 67.639 22.6814Z" fill="white"/>
<path d="M67.639 0C67.414 0 67.1889 0 66.9639 0.0124748V0H67.639Z" fill="white"/>
<path d="M66.9639 0V0.0126008C67.1889 0 67.414 0 67.639 0H66.9639ZM66.9639 22.6689V22.6815H67.639C67.414 22.6815 67.1889 22.6815 66.9639 22.6689Z" fill="white"/>
<path d="M67.6388 0C67.4137 0 67.1887 0 66.9636 0.0126008V0H56.3865C57.7117 0 58.987 0.163811 60.2248 0.491432C61.475 0.831655 62.6002 1.41129 63.5879 2.24295C64.6006 3.0746 65.4008 4.22128 65.9759 5.69557C66.576 7.16987 66.8636 9.04739 66.8636 11.3407C66.8636 13.6215 66.576 15.499 65.9759 16.9733C65.4008 18.4476 64.6006 19.6069 63.5879 20.4385C62.6002 21.2702 61.475 21.8498 60.2248 22.1775C58.987 22.5177 57.7117 22.6815 56.3865 22.6815H66.9636V22.6689C67.1887 22.6815 67.4137 22.6815 67.6388 22.6815H118C120.761 22.6815 123 20.4429 123 17.6815V4.99999C123 2.23857 120.761 0 118 0H67.6388ZM87.4928 19.1785C86.4551 20.0227 84.9298 20.4511 82.9169 20.4511H72.7898V6.79185L72.2897 4.30948L72.7898 2.80998H81.1915C83.0544 2.80998 84.5422 3.16281 85.6674 3.85585C86.7801 4.5489 87.3428 5.68297 87.3428 7.24548C87.3428 8.02673 87.2177 8.73237 86.9552 9.36242C86.6926 9.99246 86.3051 10.4839 85.8175 10.8367C86.9302 11.2021 87.7554 11.7566 88.2805 12.5C88.8181 13.2561 89.0806 14.1381 89.0806 15.1714C89.0806 16.9733 88.5555 18.3216 87.4928 19.1785ZM96.5071 20.4511H92.0312V6.79185L91.7812 4.30948L92.0312 2.80998H96.5071V20.4511ZM116.224 16.0157C115.711 17.1749 115.023 18.0822 114.148 18.7374C113.273 19.3801 112.285 19.8337 111.185 20.0731C110.097 20.3251 108.972 20.4511 107.822 20.4511H100.458V6.81705L99.9578 4.33468L100.458 2.80998H107.822C109.01 2.80998 110.147 2.92339 111.235 3.16281C112.335 3.37702 113.311 3.79285 114.173 4.41029C115.048 5.01513 115.724 5.89719 116.224 7.04386C116.736 8.19054 116.986 9.67744 116.986 11.5046C116.986 13.3317 116.736 14.8312 116.224 16.0157Z" fill="white"/>
<path d="M112.323 11.5045C112.323 13.2687 111.935 14.5413 111.16 15.3226C110.385 16.0786 109.272 16.4693 107.822 16.4693H104.946V6.79184H107.822C109.247 6.79184 110.36 7.14466 111.135 7.83771C111.923 8.53075 112.323 9.74043 112.323 11.5045Z" fill="white"/>
<path d="M84.2046 14.9446C84.2046 15.1966 84.1546 15.436 84.0546 15.6628C83.9796 15.9022 83.7921 16.0913 83.492 16.2425C83.2044 16.3937 82.7669 16.4693 82.1792 16.4693H77.2407V13.3695H82.4293C83.0044 13.3695 83.442 13.5333 83.7421 13.8483C84.0546 14.1507 84.2046 14.5162 84.2046 14.9446Z" fill="white"/>
<path d="M82.7293 8.21573C82.7293 8.64416 82.6043 8.99699 82.3543 9.2616C82.1042 9.52622 81.7041 9.66483 81.1415 9.66483H77.2407V6.79184H80.8915C81.3916 6.79184 81.8167 6.89265 82.1792 7.09426C82.5418 7.29587 82.7293 7.6739 82.7293 8.21573Z" fill="white"/>
</g>
<defs>
<clipPath id="clip0_305_3306">
<rect width="123" height="22.6815" fill="white"/>
</clipPath>
</defs>
</svg>
