<svg width="80" height="78" viewBox="0 0 80 78" fill="none" xmlns="http://www.w3.org/2000/svg">
<mask id="mask0_1304_2078" style="mask-type:alpha" maskUnits="userSpaceOnUse" x="0" y="0" width="80" height="78">
<path d="M0 0H75C77.7614 0 80 2.23858 80 5V77.0732H0V0Z" fill="#DD344A"/>
</mask>
<g mask="url(#mask0_1304_2078)">
<g opacity="0.3">
<path d="M16.1775 1.1679C14.6401 1.53245 13.0551 2.8163 12.4052 4.2111C12.1199 4.8451 12.1041 5.5108 12.1041 21.9472V39.0335H8.30009H4.49609V46.6415V54.2495H40.0001H75.504V46.6415V39.0335H71.7001H67.896L67.8643 22.185L67.8168 5.35229L67.2938 4.29035C66.6756 3.0382 65.8356 2.2457 64.4249 1.56415L63.3788 1.0728L40.0793 1.0411C26.8921 1.0411 16.5262 1.08865 16.1775 1.1679ZM21.9152 4.1794C21.5031 5.97044 20.0449 7.71394 18.1588 8.66494C17.1761 9.15629 15.4484 9.69519 14.8461 9.71104C14.5608 9.71104 14.5767 6.35085 14.862 5.5425C15.4167 4.00505 16.5421 3.59295 20.2827 3.5454L22.0579 3.52955L21.9152 4.1794ZM55.438 4.79755C55.5965 5.5425 56.0086 6.66785 56.4365 7.52374C57.8789 10.4084 60.8745 12.7384 63.997 13.4358L65.2015 13.7052V32.6301V51.555H60.6843C58.1959 51.555 56.1671 51.5233 56.1671 51.4916C56.1671 51.4599 56.4999 50.9527 56.8962 50.3504C58.4495 48.0205 59.5907 45.2309 60.0503 42.5522C60.3673 40.7929 60.3515 37.2425 60.0503 35.4514C59.5748 32.8045 58.4336 29.9832 56.8328 27.5423C55.8976 26.1158 52.9337 23.1518 51.4438 22.185C47.8617 19.8075 44.3271 18.7455 40.0001 18.7455C35.7047 18.7455 32.1385 19.8075 28.5088 22.2008C27.0823 23.136 24.1025 26.1158 23.1515 27.5581C21.5665 29.9832 20.4253 32.7886 19.9498 35.4514C19.6487 37.2425 19.6328 40.7929 19.9498 42.5681C20.4095 45.1992 21.5665 48.068 23.104 50.3504C23.5002 50.9527 23.8331 51.4599 23.8331 51.4916C23.8331 51.5233 21.7726 51.555 19.2366 51.555H14.6401V31.9961V12.4372L15.5594 12.3263C16.0507 12.2629 17.0017 12.041 17.6516 11.8349C21.2654 10.6779 23.8172 8.04679 24.5622 4.67075L24.8158 3.52955H39.9842H55.1685L55.438 4.79755ZM63.1411 3.9575C63.997 4.3379 64.8053 5.20964 65.0431 6.01799C65.154 6.3667 65.2015 7.52374 65.1698 8.79174L65.1223 10.9632L63.9653 10.5669C60.9062 9.53669 58.7823 7.17505 58.0057 3.94165L57.8947 3.482L60.1613 3.56125C61.9682 3.62465 62.5705 3.7039 63.1411 3.9575ZM41.9021 21.5034C42.5519 21.551 43.7565 21.7729 44.5807 21.9948C50.5562 23.6115 55.3746 28.4299 57.0547 34.4687C57.6411 36.5926 57.7679 40.2064 57.3083 42.362C56.6584 45.4369 55.3746 48.0997 53.4092 50.4455L52.474 51.555H40.0001H27.5261L26.6227 50.4772C24.8475 48.4009 23.6429 46.0392 22.8504 43.2021C22.5492 42.1401 22.5017 41.5378 22.5017 39.0335C22.4858 36.3073 22.5175 35.9903 22.9138 34.548C24.6414 28.3823 29.4281 23.5956 35.5145 21.9789C36.9569 21.5827 39.4136 21.2815 40.3171 21.3766C40.539 21.4083 41.2522 21.4559 41.9021 21.5034ZM12.1041 46.6415V51.7135H9.64734H7.19059V46.6415V41.5695H9.64734H12.1041V46.6415ZM72.8095 46.6415V51.7135H70.3528H67.896V46.6415V41.5695H70.3528H72.8095V46.6415Z" fill="white"/>
<path d="M32.7882 32.3448C31.6629 32.7252 30.6168 33.3751 30.0303 34.0408C29.428 34.7382 28.6197 36.2915 28.4612 37.0998L28.3344 37.6863L27.0981 37.7655C25.7033 37.8606 25.418 38.0667 25.418 39.0335C25.418 40.0004 25.7033 40.2064 27.0981 40.3015L28.3344 40.3808L28.4612 40.9672C28.6514 41.9341 29.5073 43.4398 30.2681 44.2165C30.6643 44.5969 31.4568 45.1516 32.0433 45.4211C32.9467 45.849 33.3271 45.9283 34.6427 45.9758C35.7522 46.0234 36.3703 45.9758 36.9092 45.8015C38.4308 45.2784 39.5879 43.9153 40.5072 41.5695L41.0144 40.3015H44.9452C47.5604 40.3015 48.876 40.3491 48.876 40.46C48.876 40.5551 48.7333 40.9038 48.559 41.2367C47.9725 42.4096 46.7204 43.1387 44.8659 43.3923C44.438 43.4557 43.9625 43.63 43.7881 43.8044C43.3602 44.2323 43.376 45.2626 43.8198 45.7064C44.121 46.0075 44.2953 46.0392 45.4682 45.9758C47.9091 45.849 50.1123 44.4225 51.1108 42.3145C51.3644 41.7756 51.5704 41.205 51.5704 41.0623C51.5704 40.3966 51.729 40.3015 52.8543 40.3015C54.1857 40.3015 54.5819 40.0162 54.5819 39.0335C54.5819 38.0508 54.1857 37.7655 52.8543 37.7655C51.729 37.7655 51.5704 37.6704 51.5704 37.0047C51.5704 36.45 50.6036 34.7382 49.9062 34.0408C49.4783 33.597 48.6858 33.0739 47.9567 32.7252C46.9106 32.218 46.5619 32.1388 45.3097 32.0912C44.5331 32.0595 43.5821 32.1071 43.2175 32.2022C41.7435 32.5984 40.3804 34.1676 39.4928 36.45L39.0014 37.7655H35.0548C32.4395 37.7655 31.124 37.718 31.124 37.607C31.124 37.1949 31.8055 36.1647 32.392 35.6575C33.0418 35.1027 33.7392 34.8491 35.134 34.6748C36.1167 34.548 36.513 34.1517 36.513 33.3275C36.513 32.329 36.1326 32.0595 34.7378 32.0595C34.0562 32.0754 33.2479 32.1863 32.7882 32.3448ZM46.9106 35.1978C47.6714 35.5782 48.6382 36.6402 48.7967 37.2425C48.8443 37.4644 48.8601 37.6704 48.8284 37.7021C48.7967 37.7497 47.2276 37.7497 45.3256 37.7338L41.902 37.6863L42.3458 36.7353C42.5994 36.2122 43.0749 35.5465 43.4077 35.2454C43.9942 34.7223 44.0417 34.7223 45.1354 34.7857C45.8486 34.8333 46.4985 34.9918 46.9106 35.1978ZM37.9395 40.6978C37.5908 41.6171 37.1311 42.3462 36.5922 42.8058C36.1009 43.2496 35.9107 43.313 35.1023 43.313C34.0245 43.313 33.3113 43.107 32.5822 42.5681C32.0274 42.156 31.3776 41.2525 31.2032 40.6502L31.1081 40.3015H34.5951H38.098L37.9395 40.6978Z" fill="white"/>
<path d="M32.7252 57.1974C32.4082 57.5936 32.3924 57.8155 32.3924 61.0014V64.3933H30.1892C27.9861 64.3933 27.9702 64.3933 27.6532 64.8054C26.8766 65.788 26.8449 65.7247 32.7411 71.6367C38.0825 76.9781 38.1776 77.0732 38.8116 77.0732C39.4298 77.0732 39.5407 76.9781 44.8822 71.6367C49.9858 66.533 50.3028 66.1843 50.3028 65.6454C50.3028 65.265 50.1919 64.9797 49.9383 64.742C49.5896 64.425 49.4153 64.3933 47.4023 64.3933H45.2309V60.938C45.2309 57.5302 45.2309 57.4668 44.8663 57.134C44.5018 56.7853 44.4384 56.7853 38.7799 56.7853H33.0422L32.7252 57.1974ZM42.5364 62.7132C42.5364 65.899 42.5522 66.1209 42.8692 66.5171C43.1704 66.8975 43.2813 66.9292 44.4859 66.9292H45.7856L42.2986 70.4162L38.8116 73.9032L35.3563 70.4638L31.9169 67.0085L33.1373 66.9609C34.1359 66.9292 34.437 66.85 34.7223 66.5805C35.0869 66.2477 35.0869 66.1684 35.0869 62.7766V59.3213H38.8116H42.5364V62.7132Z" fill="white"/>
</g>
</g>
</svg>
